<mxfile host="app.diagrams.net" agent="Mozilla/5.0 (Windows NT 10.0; Win64; x64) AppleWebKit/537.36 (KHTML, like Gecko) Chrome/132.0.0.0 Safari/537.36 Edg/132.0.0.0" version="26.0.10">
  <diagram name="Page-1" id="fAh4Nbim9pu4WrJ4aiQm">
    <mxGraphModel dx="1980" dy="1153" grid="0" gridSize="10" guides="0" tooltips="1" connect="1" arrows="1" fold="1" page="0" pageScale="1" pageWidth="850" pageHeight="1100" math="0" shadow="0">
      <root>
        <mxCell id="0" />
        <mxCell id="1" parent="0" />
        <mxCell id="cc7wnKE9ARNa7VLksslT-2" value="" style="shape=image;verticalLabelPosition=bottom;labelBackgroundColor=default;verticalAlign=top;aspect=fixed;imageAspect=0;image=data:image/png,iVBORw0KGgoAAAANSUhEUgAAAGQAAABkCAYAAABw4pVUAAAAAXNSR0IArs4c6QAACOhJREFUeAHt3X1wHGUdB/CMIx1nHHp76Qu0VQviH/6DqNQKogMoIFB5aYECjmIHCKIUIxUYX2agdICGoeILVLCSiqIMdhxkfKNTGDs6grWkt5fEhLT3ktzuXnKvz90l2bu9l32+znNJmDS53dyVu2SfZzYzv0lub2/z7O9zu8+zz+6z29bm/rgZcDPgZsDNgJsBNwNuBtwMuBlwM+BmQJQMDAws8/iVKyS/tkuStf1eWT3Q0jgW2SfJ6iV26fP0K+dIcuT15bISkWT1L6vD8TPs5hfjvcPDH5B8yvckWUlJsopFDZ9CPT71jlqJ9PSOnC3Jaml2eTyympd84fW15hdi2gq/uk6S1bdnr/Ti/62k2g7j/XMTKvnVNyzKMvrB/rB4W8rp/9VWSLIatFjpRd1SOlTj6R0Js6szYXbdGze77ombXat6R7M2ZRsQDkWStUM2K7xoIGv6RvFAguL+JMWOBEVnguLeOMVZ/4stVAZxULy90WucgNHuV3GLouMHSYoHkyejfGIotRAIe18MFElWXrcCWdcbxaZgGjeECbaECTaHCa4PTcV1IYJrQwTXhAi+Mh2bggRXBwmuChJcOR1fDhJcESS4PEhwWZDgS0GCLwYILg0QXMIimMFV4Sy2jxbxUIriRyk6D+WT9YHAeywytLJnZM3cOoib196ekGdu62UGZ8M7cbwybuKQDhycBP4+Cfx1EvjzJPDqBPDKBPDHCeDAOMXL4xQvjVP8bpzitzmKF3IU+3MUz+co9mUpnstS7M1SPJ2h+FmG4qkMxR5C8QSh2E0oHktT7EpT7EzRmiifqhOElZ1rlOV+deMMwNzfL5AS/qEDb+hYcpRPNwDCNYrkU66dC8Fer+2N4p954LAOR6A0CsItikfWbqoFsr4vin/l4RiU8y22kNW9UdvKnrvdlx3Iv/NwDMqG47VbWecfJ1jfb98k5grFDuTNPOAUlM9YgFxwIoOOsYo4KHYg/ykATkHZaAFy4YlM9eBRGBQrkLP6ojhSAJyCYgXyuUDm3SN6IVDsQI4W4BiUz1psIRcFMid1s3CPYgfydgFwCsoFFiCfD2TmdbNwjWIHcswAnIJyoQXIFwKZed0srEOSWxQ7ENkAnIJycYDUPN44dzCBHybn931xi2IJ0h+F3wCcgnLdcLYmCDuoXenXcEZvdF6wg8ZVvVF4Zc3ys9Ujep+SXdE3+nFHdEDagfQV4RiUB2KGbVJr9TY0Ms0jq+NtwPuWHMUK5Oz+KPqLgJNQzhtMtBSlvUe909EgA0U4CuWhRLG6W2rkm9/IvF6f8rijQQaLgNNQ7o8VsLbPvkOxEYST59W2ORpkqAQ4EWV3qlw9+7jab19Zn5zshS9pYrtvR4McLwFORWFnHn9MTOyIGejQdGzTdHxD03GbquNrqo6vKjpuVXTcrOjYqui4UdGxRdGxOaJXW161sBwPEigBTkc5ldPBZ1qcQ3E8SLAEiIiyhleQUAkQEYVbkHAZEBGFW5DhMiAiCpcgH+2PYqQMiIjCLUikDCFR2CVO3DV72RailAERUayO9B3d7GUgahlConALolXQEMqbeRMvZgz8mhjYTwx0pw08nzawL23glykDz6UMPJsy8IuUgWeSU/HzpAEWP00a+EnSwFNJA3uSBp5MGHgiYaArYWB3wsBjcQOPxg3siht4JFbAw7ECHk8YeDZTafhaYm5BohWgXpQdWq56oqjWvrmV01b4NdwykmsIhVuQ0QpQD0p3Ol+zkmwlxNxlPzim142yzqK32PF1SKwC1INy23Dt891zk9bK12w8Sr1DIbgFiVeAelDuVjJLvoVsDmfqHp/CLUiiAtSD8tpEaUnqj5ktjtUje5LFugcNcQuSNIF6UX6fKWDjOzF4F3FsO/tf5w7GsCteaGgkF5cg5/RHkTKBRlB46Wb5EI+VOgNJmxAShVsQYkJIFG5BMiYgIgrXICKicAuSNQEGIhoKtyA5ExAR5cO8trLGTUBEFK5B6kU5UTSxczSHW8Mp3DwrtoZTmImbwilUI5TCjdNxQygFFlumY3MoBRbXh9i8aTwZ16ujuJo5kotbkAkTYCALoQRLJs4bHGtZf9bXR0hTR3JxCzJpAvWgPDKWaxnGTH/Vq+PlpqFwDVIPyrbhdMtB9qYKTRtexy2ITgEGshBKV2y8pSDtsorXJspNG17HLUieAvWgjJYpLhqyv9/IzK7nVH5/R801dSTXR3ht9jKQelFiZYq9yUlsVzK4O0LejW9GCFjcNR0dEYKOEYI7Z8UdIwQsbp8TnVoWvyFG0wcNcQtSmAapF4WXI3ouQT7WH4VBARFRuAUpUgiJwjWIiCjcgpQowEBEQ2G3L6zV2nP0dVmsDilTQEQUrkFEROEeRDQUbkEqFNXdFgMRCYVrEBFRuAcRDUUIEJFQuAUxKcAgZsdMfcJzncJugcvlcQgDERGFexDRUPgFwdQWItqWwjeIgCiOBrF6oAs770wZxkxM1yci7L6sBuywXCz5HeXsHnnUly8Jh/KnXKlmC4u1ujw+ZcOSg9g9FOzioRjiZVMYlLfyZnXYXa0mr+RTi+1HAsuXHIQVwO6hkuxkzu0jaXxXIei0iPvUDB4dy+HoZHHBvq8evYSHR3PYrhBsj0zFPRGCmfh2hGB2fCtCwOK9XjixNZSG1VXvU0DaIUdgsEJ4ZfXqmt+aBgdwskGY3clJS5Q/kDxW+he+O2gzytLoMtqPqVc6BqSK4lMPNroSteZf26shV6HzUHQTYCe9an1mqad55MjfHIXBCtPMhxMfzOrdZRNds0PWjb1LnXiL/x9YPqC2Ow6EFYg9stQrK0csCl7Xt9vjVwusoTBvBQcGlkk+lbyXZTf7sx458taqo8NnziuroyawxPm1+yRZSZ5KArw+9ftW6+OR1bskn0JPZbnN/YySkGS1s21gYJlVWZ03vafnNI8cuVyS1Z2ST+32yuoBu5Bkbb9X1jYttCKSX7tUktVf2S2rFe+xdWDr4vFFL2vr6TltoXK677sZcDPgZsDNgJsBNwNuBtwMuBlwM+BmgJcM/B+xYQD0EtMBNAAAAABJRU5ErkJggg==;shadow=1;imageBackground=none;imageBorder=none;" vertex="1" parent="1">
          <mxGeometry x="116.99999999999999" y="123" width="81.4" height="81.4" as="geometry" />
        </mxCell>
        <mxCell id="cc7wnKE9ARNa7VLksslT-3" value="" style="shape=image;verticalLabelPosition=bottom;labelBackgroundColor=default;verticalAlign=top;aspect=fixed;imageAspect=0;image=data:image/png,iVBORw0KGgoAAAANSUhEUgAAAGQAAABkCAYAAABw4pVUAAAAAXNSR0IArs4c6QAACOhJREFUeAHt3X1wHGUdB/CMIx1nHHp76Qu0VQviH/6DqNQKogMoIFB5aYECjmIHCKIUIxUYX2agdICGoeILVLCSiqIMdhxkfKNTGDs6grWkt5fEhLT3ktzuXnKvz90l2bu9l32+znNJmDS53dyVu2SfZzYzv0lub2/z7O9zu8+zz+6z29bm/rgZcDPgZsDNgJsBNwNuBtwMuBlwM+BmQJQMDAws8/iVKyS/tkuStf1eWT3Q0jgW2SfJ6iV26fP0K+dIcuT15bISkWT1L6vD8TPs5hfjvcPDH5B8yvckWUlJsopFDZ9CPT71jlqJ9PSOnC3Jaml2eTyympd84fW15hdi2gq/uk6S1bdnr/Ti/62k2g7j/XMTKvnVNyzKMvrB/rB4W8rp/9VWSLIatFjpRd1SOlTj6R0Js6szYXbdGze77ombXat6R7M2ZRsQDkWStUM2K7xoIGv6RvFAguL+JMWOBEVnguLeOMVZ/4stVAZxULy90WucgNHuV3GLouMHSYoHkyejfGIotRAIe18MFElWXrcCWdcbxaZgGjeECbaECTaHCa4PTcV1IYJrQwTXhAi+Mh2bggRXBwmuChJcOR1fDhJcESS4PEhwWZDgS0GCLwYILg0QXMIimMFV4Sy2jxbxUIriRyk6D+WT9YHAeywytLJnZM3cOoib196ekGdu62UGZ8M7cbwybuKQDhycBP4+Cfx1EvjzJPDqBPDKBPDHCeDAOMXL4xQvjVP8bpzitzmKF3IU+3MUz+co9mUpnstS7M1SPJ2h+FmG4qkMxR5C8QSh2E0oHktT7EpT7EzRmiifqhOElZ1rlOV+deMMwNzfL5AS/qEDb+hYcpRPNwDCNYrkU66dC8Fer+2N4p954LAOR6A0CsItikfWbqoFsr4vin/l4RiU8y22kNW9UdvKnrvdlx3Iv/NwDMqG47VbWecfJ1jfb98k5grFDuTNPOAUlM9YgFxwIoOOsYo4KHYg/ykATkHZaAFy4YlM9eBRGBQrkLP6ojhSAJyCYgXyuUDm3SN6IVDsQI4W4BiUz1psIRcFMid1s3CPYgfydgFwCsoFFiCfD2TmdbNwjWIHcswAnIJyoQXIFwKZed0srEOSWxQ7ENkAnIJycYDUPN44dzCBHybn931xi2IJ0h+F3wCcgnLdcLYmCDuoXenXcEZvdF6wg8ZVvVF4Zc3ys9Ujep+SXdE3+nFHdEDagfQV4RiUB2KGbVJr9TY0Ms0jq+NtwPuWHMUK5Oz+KPqLgJNQzhtMtBSlvUe909EgA0U4CuWhRLG6W2rkm9/IvF6f8rijQQaLgNNQ7o8VsLbPvkOxEYST59W2ORpkqAQ4EWV3qlw9+7jab19Zn5zshS9pYrtvR4McLwFORWFnHn9MTOyIGejQdGzTdHxD03GbquNrqo6vKjpuVXTcrOjYqui4UdGxRdGxOaJXW161sBwPEigBTkc5ldPBZ1qcQ3E8SLAEiIiyhleQUAkQEYVbkHAZEBGFW5DhMiAiCpcgH+2PYqQMiIjCLUikDCFR2CVO3DV72RailAERUayO9B3d7GUgahlConALolXQEMqbeRMvZgz8mhjYTwx0pw08nzawL23glykDz6UMPJsy8IuUgWeSU/HzpAEWP00a+EnSwFNJA3uSBp5MGHgiYaArYWB3wsBjcQOPxg3siht4JFbAw7ECHk8YeDZTafhaYm5BohWgXpQdWq56oqjWvrmV01b4NdwykmsIhVuQ0QpQD0p3Ol+zkmwlxNxlPzim142yzqK32PF1SKwC1INy23Dt891zk9bK12w8Sr1DIbgFiVeAelDuVjJLvoVsDmfqHp/CLUiiAtSD8tpEaUnqj5ktjtUje5LFugcNcQuSNIF6UX6fKWDjOzF4F3FsO/tf5w7GsCteaGgkF5cg5/RHkTKBRlB46Wb5EI+VOgNJmxAShVsQYkJIFG5BMiYgIgrXICKicAuSNQEGIhoKtyA5ExAR5cO8trLGTUBEFK5B6kU5UTSxczSHW8Mp3DwrtoZTmImbwilUI5TCjdNxQygFFlumY3MoBRbXh9i8aTwZ16ujuJo5kotbkAkTYCALoQRLJs4bHGtZf9bXR0hTR3JxCzJpAvWgPDKWaxnGTH/Vq+PlpqFwDVIPyrbhdMtB9qYKTRtexy2ITgEGshBKV2y8pSDtsorXJspNG17HLUieAvWgjJYpLhqyv9/IzK7nVH5/R801dSTXR3ht9jKQelFiZYq9yUlsVzK4O0LejW9GCFjcNR0dEYKOEYI7Z8UdIwQsbp8TnVoWvyFG0wcNcQtSmAapF4WXI3ouQT7WH4VBARFRuAUpUgiJwjWIiCjcgpQowEBEQ2G3L6zV2nP0dVmsDilTQEQUrkFEROEeRDQUbkEqFNXdFgMRCYVrEBFRuAcRDUUIEJFQuAUxKcAgZsdMfcJzncJugcvlcQgDERGFexDRUPgFwdQWItqWwjeIgCiOBrF6oAs770wZxkxM1yci7L6sBuywXCz5HeXsHnnUly8Jh/KnXKlmC4u1ujw+ZcOSg9g9FOzioRjiZVMYlLfyZnXYXa0mr+RTi+1HAsuXHIQVwO6hkuxkzu0jaXxXIei0iPvUDB4dy+HoZHHBvq8evYSHR3PYrhBsj0zFPRGCmfh2hGB2fCtCwOK9XjixNZSG1VXvU0DaIUdgsEJ4ZfXqmt+aBgdwskGY3clJS5Q/kDxW+he+O2gzytLoMtqPqVc6BqSK4lMPNroSteZf26shV6HzUHQTYCe9an1mqad55MjfHIXBCtPMhxMfzOrdZRNds0PWjb1LnXiL/x9YPqC2Ow6EFYg9stQrK0csCl7Xt9vjVwusoTBvBQcGlkk+lbyXZTf7sx458taqo8NnziuroyawxPm1+yRZSZ5KArw+9ftW6+OR1bskn0JPZbnN/YySkGS1s21gYJlVWZ03vafnNI8cuVyS1Z2ST+32yuoBu5Bkbb9X1jYttCKSX7tUktVf2S2rFe+xdWDr4vFFL2vr6TltoXK677sZcDPgZsDNgJsBNwNuBtwMuBlwM+BmgJcM/B+xYQD0EtMBNAAAAABJRU5ErkJggg==;shadow=1;" vertex="1" parent="1">
          <mxGeometry x="115" y="320" width="81.4" height="81.4" as="geometry" />
        </mxCell>
        <mxCell id="cc7wnKE9ARNa7VLksslT-4" value="" style="shape=image;verticalLabelPosition=bottom;labelBackgroundColor=default;verticalAlign=top;aspect=fixed;imageAspect=0;image=data:image/png,iVBORw0KGgoAAAANSUhEUgAAAGQAAABkCAYAAABw4pVUAAAAAXNSR0IArs4c6QAADAhJREFUeAHtnQt0E1Uax+ues2cfriTpQRDWx7q4L9ez6wsX8bWruyrKCiqrgq66goDNxFKEUlABQYTKo1KwS8sbasFCu8UWdRGxBfHBuy+kQCnNTJKSpDfpI5CkmfnvudNGI5nJg+jpzGw4539mOg23M98v371zv/nmuykpyX9JCyQtkLRA0gJJCyQtkLRA0gJJCyQtkLSARixwOZvxEwNnelBnNs7Tc8a1BpYp7m31MZvK9M1MrY41NutZprzfmfT+GjG3/GX0b5lysd7MvKpjGbeeZaBk6VjmrP7US1fJX43Kf6Mzmwb1YZk6JUOQODfrxac06Cl9zcxAHctwEhesaC/pPl9jvbagIOUiPWvcq04YwW5VQ1B0HPMPdcPQGBQdy1TKAbnSMhXDW3PxKMnDIyQPD5O3MbJHI8hyPESW4e9kGYaLysWDJBcPkKUYRpbiflFv4T6Sg3tJDv5GcvBXsgT3kMW4myzGX8gi/Jkswl1kIe4kC3EHeRO3k2zcRrIxlGTjVrIAQ8h8UVfYpsbUdRqajcf6np40QLXDeR82I1VvNnZJARlqn49yvgY78BU+xFG8j3pUoA7voRZlqEEpqrEVh1EsHMJm4SCKhAMoFPZjg7AP64QvsUb4AquEz1Eg7MUK4VO8LezBMmE3lgqVWCJ8gkXCLmQLOzFf+AjzhP9ijvAhZgsfYKawHS8LFZgulCNT2IYpQhlucM6JCQi9DlVDSeVMQ6Rg0GOFXfuwCw3YiWO9DuVG59yYgagait5sHCEFZKDlJVThBD7BcUVAiRdI9zUZ63/WMrGfqrovuQH9KstU7MZJxUC5yfm6pIf0s0ySPB78kvVhTWWaAfIpGhUD5WYZIDe1zsOVLZnyUMxGnkYfVAMlkofsxSkoBcpgGSBDXAswrqtIHoqZCdC4nCaAfI4mKAXKLc55kl5wq2sB0oUSWSgGLm2zamDQE5XzkF9YMvEFTkMpUOSADHVlY7JQKkIZH9iE3ztnwcCakMqacJ1zNh73r8xRGRDTqOAAGLqlQPahWTFQ/uR8Q9JDbnNli/OUIBSTsBUT+E14nkrYhLFCEZ7lNy5QDZRUy4tDQ0EE929umYv9aFYMlCEyQG53vfn15DEUSppQjInCuyqEgtk/0LPM/iCI4Pb1zgochFkxUG51zpf0kDtcC781o9cElEus4/vqWdOGvpyp9Q+2WZjXuR1HwOEwWMVAofGu4JcldHudfSZmCOXag0L72DrYBtfDhlpYUQOLoqCMcOdJAqFw+nLp6G/JCFM/SwboxPF8pXKms3qWIXrW2Ko3px03NDMFuuYXDIobZxpgG3wULVAilExvqSyQUI+50H1dM/NZClIuUhSUBjgHH8MZKBXK9fbZ3ysUGmhVFJBGOAc3wA6lQpnl347LLBnfGxQdZxqlOCAnYIeSoUz1luLnlpe+Fyh0kqw4ICfhgNKhzO/aIT557MdFjvTGO54oEkgjnFADFPrkcTG/C5O9JXjeU4hnPevxjGc9nvasxVOetRjjWYPRntV43LMKj3lWYpSnAI948vGwZwUutaRLepiigOg44z3X22avebW9DF8GTqsGyoU8DpYbhxQDRM8Z54a6N41j7fAf1SyUATI3BooAojvNXK03G/lQIHR/uGMp1NR9xeMpAyyTldtl6c3MyPNh0J9/ZZ2OU3BqEoqigVA3lQJytWUamtCqSSiqBPJLyzScRqsmoagWSDOIJqEMVPIYItdlUQ8xg0CLUFQLhIVLk1BUC4SDG1qEologFrihRSiqBWJFG7QIRS5arIyZusw8hA7qNrRBi1BUC+QM2jUJRbVA7OiAFqGoFogDHdAiFFUCGWSZBic6EQ3KqrN7cL0tvuSDa6zTMaO9FIdgDsv7+gynMKV9CwZZsyQjslJxN3rst7ZXkHW2NKbX6y6XeQSs6EGdAmlFZ0QoJd5DYmKznJGiHZ/VsS0sGW9Gx3/iAhH6N2iS9Vzv9qhQVAuEwBMRyujWggs2HjXkjS2vhSXj3dDyWkJt3tuaE/VFVNUCccGDSFBGOpYnZLxrba+GZUj+zvZKQm3e5VgY9e1gFQM5i0hQcjt3JmS8Ca4NYWmrY13rEmpzcmdx1Fe2L7dMkfwbih9D3KBA5KHY0Aajq1B8OSa0L49lnz4iPiiYw9JWPxMaMcyRI2mwSO3S8eMx1wqUozbqe/SqBdKGc4gGhc5TqgMsSr2HsdV7EFu8B1HsPSDqXe8BbPbuF7XJuw9F3n3iZyq7GqIm45V31SDfuxsrvLvxb28V8rxVWO6txHLvJ8j17hL1lvdj5Hh3Is9XiXcDB2IubnCFWj2EAokVCvUWq0piX6oF0g6vCERrUFQLpANeaBGKSoFkoRNeRINiFgiWdOzAC2QjJpINmEA2YDxZ/7WeJ+tBNY6sE5Xm2oiZYnZkk2yKUVXgOLLaS/A0WY1/klWiniIr8WSPxpCVGEMKMJoU4AmSj2dcqzG1YwveF+pjKgOiYiC+iFAaeTtuiDNsErxToqU7PvIfDYPyvr8OV8oMusH/K7e91vYKtvHVUaGoFogHFIg8lGnuLXHfnoYac7gjNyzv6wHH0oTafM69JmrBHNUCOQs/IkEZ4ViWkPF+Y305LO+LHguFFu/+3Y5FUQvmyHmgwieGWaBAIkHJcG1OyHj32XPC8r7utS9JqM2nXauiFsyh0WYp0AbW+ECvv7BDvxVSJzfIkoVz6IoIpSHQgl/LXJxUm6HHLuMyUOGrCcv7KvMdAf1d6Gdj3f+ldRq2BWqiFswZ5VoR1j6tU2xoHK9TLJBrLFnwoisqlJMBO2a2leFJZ8HXGuMswBhnvqjRznwE9YRzBahedBVhT9cJ2RSjj7uOIc1ViFHOPDzao0ecb4PqYVHLMdLZrRHOZaAytr2DDwL1MdVmKeGPYKj9W6U6iIFlhvU6DHoCch5CgfgQiAmKWmf0ef4qWsRzYl9H5iWKgBELEK1D+QB1gxUDIxoQPwKil2gZiqqAdIFHLFDsQjv2+5uw13cSn/Zoj+8Edos6jiofVQMqfQ3Y4z+OE7w9ajZLDc/hQ38dtvtqUeGrRbmvBu/5qrHNVw068Jf6jqDEdxhbfYewzX8EXwhNYY+DY6n3tRMN6vEQCiQalNfbytE/zteTaXGxcWQtWIGE5X01Cg78i6yO+xlLPy4dGW2bLwCKCoHIQSnyfBl2+xjrLSr93PS2kjBPyWzbmlCbiz074oKiKg8J9HiInKc84cxPyHh/tM0Ky/ui5aHigXr+Z4c7c8MSJyJVxqtUU5dFgUSC8pRzZULGu8k2Jyzv60Zb7CXFz4dBf6bzk1hLS5UEDmNC28bRKQfG/1Axd1qR5iEBCCIQOSjl56oTAjKvvSIs72tOe3lCbRac2x2WOHF+ZbxK4TgedH4TxNSZjayhOe12RUCJDiQylPyOStAwi9S3Ve7YAG4ystxbRe84PxnPCjemuosxIM7wydWWTLzRsT2m0lJj3RKZLWajXREFl2MDEhkKjXm18G2ibLwbVFbeBYsoAo4nYHkCc48cQkfEbBaaOEEffB3jW/AVb8NR3oZ63oo63oJa3gJ6S1zNczjCszjMszjEm9GAM1ETJ4KeIpf7lcqm3d/rXhIJCC92WRRGUJHHlFhiX0oIs9DSIVLeS22heCBahKJ6IFqDogkgWoKiaCByC7rQtacECKAgQvXNeBJ5oFdyQFLuhR29mXmo18eQSEseNXTZNAelwl8jOaDTQb4Pa7ql14FEWhRsmD0Hbt6jGSj7+WbceSZbGghdGK1pkr7XgdAT0LFMldRtID1GJ33jWtdhEtmE9IgqQjopwosyMpF3QMWEqRBG0q00UohubUQa6RZNwOtOwutOxIslGY8m5Y0VtRbPkW493poPmgsmd536ZuMuRcDoAfKo7IkqfIHi7+y8zcxIxQChJbb7cKY939nFqQwiXVhTcWXG1b04cXDp1fi3NLB4aVPaZcrxjpAzSbWkXaFnjQf+XzxFZzZV0yKgISZQ3u5A6/ifGjjTDD1rdGkYDDFwxumqWr0tpenZH9PkMbGmL8esMbBMsZql55g19FrEiO4J04+U5wrJM0paIGmBpAWSFkhaIGmBpAWSFkhaIGmBpAUuzAL/A0JbAgXuS5jdAAAAAElFTkSuQmCC;shadow=1;" vertex="1" parent="1">
          <mxGeometry x="113" y="220" width="85.43" height="85.43" as="geometry" />
        </mxCell>
        <mxCell id="cc7wnKE9ARNa7VLksslT-5" value="" style="shape=image;verticalLabelPosition=bottom;labelBackgroundColor=default;verticalAlign=top;aspect=fixed;imageAspect=0;image=data:image/png,iVBORw0KGgoAAAANSUhEUgAAAGQAAABkCAYAAABw4pVUAAAAAXNSR0IArs4c6QAADm1JREFUeAHtXXl0FeUVD+d0PT2n/7T93/b0jy5580DcsGJFrdW64V4VtVrbnta6YI9rj4pVUVzADSEzLwYwxKwQwiJJMCIkIRsESFjCYhZZREEWlfV991fvm4yZ9/J9L7O94Hs8zvnOTIaZb757f+/b7v3dOzk52X9ZDWQ1kNVAVgNZDWQ1kNVAVgOnsAZG5+G7I3WMDEdwV0gXT2uGMMIGleYatFQzqJYLn/M1LSJ0vofv5Wf42VNYdQGJDozI1XFuWBdTQ0a0RTPEUc0geCviKNcRqysfY3KAEQG1MvOr0Qz8XDPEi1qe6POmfCegid6wLqbwuzJfox4l1PJwumZQpWYIkTogEsGKvauS3+2x2Zn32Jip+GFIFzOHF4h4YEK6iGqGmHFaAX6QeRp2IRGDEdapZvh6RDwQie8N6VTNbXIhQmbdGtJFfqJShvr79HzCxXMJV5UQbqgg3DyP8Od5hBsrCDeUE8aXEC4tIpw/hzAqkhwA6bsiQs8sLTuURjMwVtMFSZViW02dHiFcU0Z4sIYwuZ4wvZXwRjPhtSbC1EbCSw2EKfWEySsIz3xImPQB4ck6wn/fJzxaS/jXYsLNFYSLCgkjnQCkCxoZwe8cipE5t2kRWpAMDO4FD9USImsIBe2E/DUEYzUhr43wlktQHq4h/KeacO8SwvVlhDEFyXtOWKf5maNpB5KMzsNPQ4Y4IQNk7BzClAaguJNQ1EEoXEeYszYelJk+QHngPROYWyoIZ74tB4bbxm10IEpm3BI2cK0MDL72ajNQsREo25AcFD89xQJlwjw5INyOUATjM0PbDqTQdDFZBsi4QkLVZmD+JmegBNFTzlL0Es0QzzoQJTNu0fJEsQyQO6oIi7owCJTC9YRpTeb8EfTwxXOVrC2aIYoyQ9sOpNAMWiZTwgM1hCVbEQfKCw3A2bMGlDahkjCrPX5O8TN8XVk8ULe9Tbw/ciBKZtwSNqINduGt80frgKXb8A0oczsgnXjvrw5uor+2TA5IbiS6MjO07UAKzRDtFgj245PLgdrtA6A8Xw/pcHJFSXCrrxvL5YBohljtQJTMuCVXjzbbgbDOeXh6/6MBUKY2ywG5rly9JHY7fPFO33q//RgyRGdmaNuBFJohnrILz+ej8wnzu4APugdAWdgFjJNMus+tTL4kdrP6umV+FpActqpqeVRhgXJmAeHVJmBFL7C8Jx6Uok7gpnmEswoIF80lPP1hsEviCVlABrpQroFfT6zFxLpuoLEPqO+Vg2Kf6N3sU5wMX7dVZnvIACI5OTltOzCueQew6uPUgDLU8HXHgiwg8YDsxrjWncDJAuXOqiwgcYCs3Y1xq3cBqQZFNXz9dWEGATLqbfwsrOOakCGe7zeH1GpGtFEzRJvTck6B6LqqlGCVK0sJV5aYhfcbXC63SjHhT/3lsmLCZe+ahZ99YvnQBknZ8HW3GpDDQ8vAslJtTHZdTGZdnBQrMTuXcvOoSmVCt1ZPw32cWOMelL8pAPHa9n6dVIbzcF7cUJCKP/oJCflOPH1eBfLzHFtuyze4A4WX1H7eqXw25g0VRsp89N82QoJKESWd7vYp1ypNJ8EAxcSJlLBZTKpOMI1UKdPv9Uvfde9PuTPgIUsug5gR6IjFRDKTu/TtBeTc2YRIe7zp3onn8Z73Ui9TTHdBkvGGIiTwiufBZYQXGgmvtQDT24D8tYgpyGgHdC5rgLw1wMzVwIz+8labee+bbcAbrcDrLYg9z27cac3A1CbglSbg5VXAS6uAKY1mYSPk5AbguXqzvNwILNoyYCWWOblUPvp7l8oBObuAcPciwl1VBN6r8Aby9koCm1puYdpROYFN9+xPubiQwPfLe8c31ysD6SWht/ELVe/4QxFheS/w+RFg32Fg72Hg06+APV8Cn3wJ7P4C2HUI2HEI+Pgg0HcA6D0AdO8HPvoc2P45sG0fsHUv0LUX2PQZsPFToHMPsP4TYO1uoH0XkMp9yn3V3ygsTqHM6xqKYmSxWew++jPz5fWZOgyASxwjPtt4UvZfwbJu4MBRYP+R9AWFnV12mazz899xxvtKBIXZLFYdicdwRLzgr5cAIzRD9CZWzH+PLyMcOGYCks6gTKyRK/D37zgn4yWCouR95Yk+X6EQHJ8hA4OvsXv10DHgYJqDwoxImYwXFLpjSNpBuU7hFjbfg3M89xLNENNkjWWCGc8VXxxLf1D+qVhlXV7snSH578Vq2mooIl7xAUi0VQbIvdWEr44DXx5Pf1BUG0Mmb8tsX04n+gsL5T2P3deeAOG4PE0XR2SAlG5CDJB0B2X2OoDZ9DIZ/7HE5BJ7BYUZ+bJ6WaeeYh7DEYySVmgQNu4FDp9If1CS7dJfbBwgeHsBhVn3Kv3lGtBc9xKOYJVVyBsgBuPIifQGhX3zMvn4Gu9B/DIkH6lRx6eEdPzFNSAhQ/xP1uBbKwnHosDRaHqCwszIibWEsGJvxTI/tEzO+1I5uVTxKczkl+lQM8Qk14BwHLissgdrTUCGExTeybNHsb4PWNGHmHXggx6AyRHLPgJqtgPV22ymk61A1Ragqguo3AyUbQLYhMOK5v2FTC7rGhO+OQwiiFCIP76repcHY2PIoHlWI+3HZ+sJxwVivSRVoHTsMW1fdy0yFego8inJL97e/mTnHAI3rcmdPyVZJNfVJSpAqMx9D4nQElnjX24inBBICShb9gEM+BnKEAGlgEl/9TI5ZNfYDew0FMLJ8JVkg7jQPSAKhvobrSYgQYPCQ8u5Npa7TGGpuhaOEB6vc2+6H2r1pVz6GlQbKCBRgVgvCQoUNr0P17CUCOo5syhm9vdKxksGioo3zMQI94AohqxXmgkMSFCgsN8kUUnD8TdH97LZZOGWAS6xV1BUw9dNasuvhyHLxr21K+jZBkKUTED8glLXA4xS7JTt7wzinIclXobetoBiDq/qrcHSVmU95Xq1v97LpC50mSLYMxgDxCcoe48A7GmUvcO6xsvGl1ZRLIinaSfQugtoYZbjTmDVDqCR6acfAw3MC06yJGZGfRs/P8wMSeaUWbLEHz0te+UbwwkLCILBsIrH4atgvXqo4vmEY0N2Hkofz6MVR2/vKRdKQilMYDxsDEMG7oxH1USbwwJ4MvcLyiWKTRPvoIs3pKc72AKF55TpLaQcjj2ZTn6bj7AMEL7G+wUGxCso7Z+oe8dTKyitffQWKM+tVA1XhFAeQq5XWcnM7/M3DwDiBZQ3W+WAnFFA6DmY3j56Kw2IyjXM5vcLJuE7rgHhB8zUeoORvr/GnEesXuIWlIfrBtfJPY+XoeyfT2cfvWUlvrpULmMoEm3yBAY/xDkKZcMWu3APHY3vJW5AUfkhXm2htPfRc24WTpKjWs77cuGG8jFGBghfK9sIUP884ranqNymBevS30fPVmK2Kqv0phk+SA5MWdF00SOr/Jpyc9jyAgpTiGR1zl6f/j56ZkgmSdfR64sG1D9sTZEpj6817jB7iVtQkgGS7sQJTi2l0hcHNnmeP6wHOZWqikrKO+mWXe5BGa8wKXAPSWfiBHORx86W937W4cgZOM3Sq6+jmb5V/iL+NXCY2SN1hGnNJgN91jqgdKNZSjYCiUW1g53T4Y040X0Asc3kcBK82XfyWB3AlKjbqob2RLIOfYFgf3i4whEYELdsFrZxMQ9XNUx8G65z72AWj12nvs85r22qhXunwz1xgvOepLpdvuuPiOm+AUisgMOy+hPfp0wBhR3u2Cwc6uBbWQH44pO1IWTQeykJaWOAOM6QvzyQqqBPBsQNcYLjUk6W2zcZCLH/0wWFDZGXMjDsPYbz2nIq1aDDogs73bNZOPpqSOWkuBfY3x8yxHFm7HDkgF1nw3L+q9n4ScjA1ZwwknMUxr7hEYmuHCrgPmSIw3YhrPO5nd7YLEUbgNurzEzX11cQ7OW6CkKslBN4vmErgb3wBjdWygicxGCotsf9vx6tjyUOMERROCKeYV2wToZF+UG+hJODWSDYjwxIUMQJT+F1n2FckHKmTV1DAXKyQNm2PwtI3PjPPcQvccKP6b4nC0j8HsIC5GSBkgUkYfUTA8Qnm8Ue88gmmytKCWNmEf6+hLB+T/KQ7SwgCYBwfkW/bBYrEHXh1sHL4ctKKBYvr4qj35EdsuKHLAbEjecxWdAQ9wj7Cs46X7xNndyg7xDGps3KKMiGqhIpz1k/4Bb221PuUCSVqdikphjtOoDRQcqZNnWpUo1zUI1bd7AqkiuvffCQNWY2Yfv+wWlAeG6ZtIJwXgF/mBKPanPwo7RRZhANVSXjf73VH5vFbro/eBR4fPnAsMVxg0u3D6YYcXDQeYNCz6KrflOK7wUha1rUofpcxWNffz/KrTuYjZHJDJJ9B4G23QBziWUUoyc+HADNmmf4GNZxY1ooM4hGqj7owskuGZCgQUmWcUJFadUieCwIWdOiDs7eaf812s+9+Oi9xjy+3z14nrHackp98ijZR8EuKSI0eGSzDDV82XtKbTeg8u2zW+HsQvw4LX7dQTVyKOIEm8yZKOGHIZm4T+GkauwEY3O71RNkx1Pus3kMKue1deJ55Ijc+75OoTRvM9C1Dzgedb55ZEpRx6dAySbgnqUOo3t1QSHjFN2PqJITyH611jWOT7l1AeGBWgKH101rMelHTEGa2kx4eiWB0/bdPJ/An8GwnnN8TAUhIahhJdX1/PJ1fF8zaKFjZSXYvoJ+jgkJnkMFUq2s4aqfSQBMMVKxI4NWuqw+nsQ5H2LKslAPlzKDfI/1gfvhBKb/XZUcLRakLBlVF3OJ+deqYt3LfuGur+mih4nPgXFtMwoBlTDACI5P4QCX2FfdFNntHIGhiyNcB9cVi88ARqhem73uUAM82XImNo5g5XxTPO+EDSoN6bTIpOJQrabTYvOamMn38L38zCk/UTvUcfa2rAayGshqIKuBrAayGshqIHM18H9OCDpmZG7Q6QAAAABJRU5ErkJggg==;shadow=1;" vertex="1" parent="1">
          <mxGeometry x="639" y="225" width="81" height="81" as="geometry" />
        </mxCell>
        <mxCell id="cc7wnKE9ARNa7VLksslT-6" value="" style="shape=image;verticalLabelPosition=bottom;labelBackgroundColor=default;verticalAlign=top;aspect=fixed;imageAspect=0;image=data:image/png,iVBORw0KGgoAAAANSUhEUgAAAGQAAABkCAYAAABw4pVUAAAAAXNSR0IArs4c6QAAD3VJREFUeAHtnQl8FNUdx1P99K7MbgR72ENbtdZ6tNpW8aDiAWq1n9qqxbZ8PrW1sWZmA6KConJDwhGQQ5FDrCgCCoIc4QpgKEJByhFEAhFI5k32SnYn2SPZ7Gbn174lQze7M7sz2Vm2Gyafz/vM7mTm7Xu/77437/3///e2oMD8MxUwFTAVMBUwFTAVMBUwFTAVMBUwFTAVMBUwFTAVMBUwFTjHFCistfViBPZOi8AOtvC2pxnCjvi/SoLtiQsE9sJ0WCxC8U80lZ/nnqF1pXXu3Tj8gnT5np3/4+HzaaGshNtoIWzIQjj8Xyfe1mglT16rJo5F4J6y8Jykvw5siOGLK6yE+1MBHj5fLf+snrcS9r5ehPtEf+FzC40h3IdKwlxI/n6xhWcjmdaHIdxhK+HuVfqM7JzDmPOspHhypgXP1f1WYmufiaqiGagqmoZtRVOwragUlUX3tMyaY1iZeE5iCFdagDHnZQeCnCvtogj3vmEFz0EXd4VzJOZIOzBLqsIM6UOUS9swRdqKZ9rfN7675bmVWe3CehHu5XyGYSU2cMFlmCvtVITS11NqPBTBVi5/nw09Wgn3By0wLrM/h9tcZRjonh5LA9zTMcBdHkt3u8shp7vc00DTnZ3pDvdUyKm/ewpour0z/dI9GXLq556Mfu4y3NaZbnWX4RZ3aSzd7J4Emvp2ppvcE3FjZ+rvmYrn21ZjgbQL86SPFKGURrfgId88XN84Hte5x+DaznSNezSujqVR+LF7FK5yj8JlrpH4pn2YJoCMwD5iKIxvk6e+zPAsUQPSm5Tgce8/sC1cg3p4UQcPTsGDk2jCCTSiFo04DjeOwYWjcOJTOPAJHKiGHYfQgAMQsB8E+8BjL+qxB3XYjVPYhZPYiRP4Jz5DFWqxHcexDcdQiRpsxlFsxKeowBGswydYg8NYjWqsxEG8hwNYLu3HUunfWCLtw1vSx3hT2os3pH/hdWl3Sii0+yqTtmCitBnjpY0YK23AKKkCL0rr8Ly0FiOkD/CMtBrDpFUYIq3E4PY3cYN3AmjrU9OHIVxdwak/f8kwKAwdc6v095c0DMfq0EEIaAaBCB7ecw6KTVqB37XNx0UNQ1WhWHh2mGFA1Ia3FwlDsaH9MOxoQQOaz3koD7ctQKGg3FIYwlUbAqQXKb5MrXU817wCLvjgRIsJRVoJ2lJubp6s2kp6kZLLM4bCCLYnlIDQ58bxqBNu+E0occ+Uv3UsVX2eMMT2t4yBWAR2vBKQu9zlaEIAjfCbUBIe9Je7Riq3EoEbZwAQbpESkL94FsGDoAlFYfR1vWeCMhBSvDBjIFbCvasExCa+Ay+CJhSFIXFfsUwRCNUya0BKxHcgotWEojBPuVlUfrBnHUgzWk0oCpPHW3IDZCkoEBNK8oz+VnHK2e+yhohL0YI2E4qCmeU2cWpugPjQZkJRsH31yxUQP0IwoZz2p8QbJH8pTstNC6FAugPl/dB+FItv40+ehRjvW4tPog3dMkh+LPEoC27AIO88DPK+hknB9THrcHesxIuje/C4bzEGembgN+KrGN22rttW4ttzAWSouBQBtMeAaIVC7V5PeBcnfXt+YH8Om8NHdEHZFT2Fvq6JSXnd5JqIymiNLtP97PB2fLfh2aS87vfOxmJpr27TfX+xPCkvOpfL6rB3qLgMQbTrgvJqYLtiQWlhr3WMxkmpUTOURzyvqeb1sGeuZn/KGukwrnComDoIB5t/me6WckfugIR1QenvUh59yJaAd0PURZXen7Jf4tFHKFEFQv9XJdVqgjK5bZNqPrRcN7jG6XZy3SlOV8wzqy3kKXEZWkGBaIfyQ/sLigWVgcwMVGpyclVGjqbMh+a3KnJQk+dxRGBlyrwutY/Q7Xm8S5yhmGfWgbQhogvKHWlayIrQvzU5uQ5JQsoWcpEwBDulE5rcwdPatiiKJ39JfuaeoNsdfLf4smKeWQcSQgRtCGuGMj9QpVhQWvmfOsagXvJq9jz+wTNfNa9HvfM1++g3S0fxI4d6y306+J5uH/2A3ABZDgpEDxQRQRR7304S8nL786gKH9PledwfJbjVlRy2c4urFLuiJ3UFTrwe3olL7MOTyvU7cS5W4ZDuwImBuQAyTFyOdnTEQdHefVWEDoOaXv7seR2TfRtwItrYLSdXDVyYGdyKwd6FsfRysDIWxdKdaJY10WqU+JbhAc9sDBLnoTy0pdvRLPeIM5Pg0l4gq10WBRJGRwIU7d1XTzbd3yvOyg2QCKI5gUJjvaoitXij9SO8HKjEBP96jPevw9TAJsxv3YGK8GEckBpyFvd1Xy6BnC0oeyJ1mOhbh4HuGaDhR/IoSO1I5yI0ynFoy3KsDh/U9UzJNBjvV7kA8rS4HBSGnLLVfa0PHcJvm15FYYrIQDUo8ed/7hwfs3vtleqzHiF5vzhb8QuT1WcIBdIRByQbLWWqf6NqSE282HpeX+l4AeXBLVmF8oA4JxdA3o0ByRaUz6KNmromPTDir6VB3hs7jmiaPOqNJc4hEEkjFO1DYnn0tbU9vXkkXuDuvP5ew3DMbfvQcCi/Fl/JXguxkOKFSpUt8ixGBygQrVD0DYmPR12g0ZFKny2fo/+/yvEibnROwI3OibHXvYUhKe+R75WPF5ISjAusNRTKAI+yLctCbAsyDgNSi1wc6JqO6Bkg2YHyUsuqJHH7OifFnFpbwzWokzxJtq/PJDcqw0dR5q+IrUXRMhigSwle9K8yDMr1rnFJ5Y59AYyIXEwV2+uK+rIOZVnrXvzV+wY4cQkqQtW6Z/Q7IrV4XHwT6VoOBTc1uCljKG9Ed6uOCA2J7WV42w/k5p14HN38QQxItluKERGSW8Kfop9LOYBNrlcfYSiWh/dlBGVQs7rRk6l/8vsZd1k0A7X1IX2EIdgROp43UKjta0jzUuXupHNB0jWOUfhIo+k+cfQ1PbQFvVUcZwzPHjQEBs2E7mwgf4sSj5c2DMeHoZpuQTkecaE6IsTcwHrdwZlE3U/yV6Sc3xQ3L9E9T5ka2oyLG55Why2wQw0DQtfHMTxbnwhDfk9HKqz3bVSHiaZnij3ajAfc/zPA0VFSdaRBlzs406UQL/k+UBWPml3WRqo1QVkU/gi/8cxJCdgisKcKam1fNA5IQUEBw3O/lwGkOl5hH4m7XNPwmGcRtodqFOcpg5sWJIlxk3PiWW8pj3rmJZVDrhtdTUwnj/LKYHqMXx18o2sCLrGPUL1fzoceGcH2kKEw5MwsPDc9/oPSvaYjlxWt+7pAOdnRqDoKOd1KtPvo9axPOSo58Rkau6wOPhgVQEOQ0tUjk/9bCTdV1s/4I93JgedW6ingzx3ju0wex7asURWgtsOl2R0sz+jTQakKHz8zuvqWMAzPtazACTSdWbI9M1ipWh499VS6NmZMzPpmNBhzHsNzk7TumlNISsJRoOh0ihZ9T3jWqVT4fs4yXe5gLVH328PHQJdtJ35eqb/iTEs5Dheuc4xOuibxHl3v6Y5CAju+AAWfM75VqORYSIrvoUt90xW0FyneIWfB1HGXql0/P7Ajzh2sz8yiNE/ZGa7F9xuU+3jqd4/f3GCsT73VqpVX7TzD2w4xvG2AXOeze4ztDGT7I1PPrWcI15ZUSJ5rsgi26+RCMYR9POkawoGO0pzRFsPcwf8KnwB9KCt9Fj1HR3XxO07s6TiVepSksmmCnH9n3ddZie2P2d8BSFYzzbGPu/hrFsLdTjfxovMWq8D9/QJ7Ue/429Q2r6HxWkb5U/ZF6kCjWGSxlI6jfR8kRUje4FSzP7F7rMRWlpgYYns2VlfC3U7rHl/PvHltJdwmJYGGeN9J63nc0HYYT3rfgs27BNvbaxSj7g9GCNJFRz7YNCdmlEzcBuQx7yI1iOvyRmC9BaX9qxKQWb7KM0CUWsoc/9YuYtHh9Cv+bV2gHI4IuMr+YpfrEj/r142zYzCUtgGhrSbxevqelllvPfPmejpjVar04sCu2FxF9s/HQ2mWWnGxkGySoCbz2f6tMSg1HQ5c7XhJUVD58+5vnAle8qgG480MdIUu32ch3Im8EVhvQRnCOeIqekbA94Ifd5k8ymBo4MSxiPPMdYn3UijjWtakHbbe654BQfKmNN3PC6qGudr11jNvrrcQ9mSiqPT96Rai7OTySyHFuYRSPkrn6AZqgiSm3XGiPLBZETxD2KN5I7DeglITtJJo032bUrqDKTDaGpTuTXWO2tQaJFHT5gYvtCjvucjw3G699cyb63vx7BolAWkAdjon11z/dl1Q+rumQIh6Na+jp6MvpbJZCPte3gist6DU0KZU6V84JmjypywM7NAE5RZnKfioV9eS7StVFhPR3bn11jNvrrfytkeVgNBz9R0eTVDStZRbnaUgUW+XIbGWHSeo20CxbEJJ/7wRWG9Be9cN/aaaUZI+R2i3JadUIUZqLYX6VEjUo2shqux5pKuKk4BQx9K+os/rrWdeXW+p5w4kVZxwuNr+EkISHfBqg/J64J/4elzQNTW/8FFqjO+eP4VIXgz2LIjrEtkjVsJdk1fidqewdHdOJSD0HBU5Hgh9naql8B1NeL91P7aGjsb8KHqW16n5Uw50kDmFDcXf6U7d8vKer54c8nVFy/B/5yPUXC7HesWDSQXFyKh7N3ySE/6r81LYTArNCNwraq3kocZXY3ateCDpWoqBUNZkUq+8vddqL/kuw3NBNSijm1cndV3ZhuJBoENE4Cd5K2qmBbcKtpFqQOj50pb1ZxvKrEzrlN/3HxnzBbURlwyKxnoFpfYkMEY/U0QEj9iBr+S3oAaUnu70zBC2RQagdOzrnIjd7ScyhlLRVo1BTa+BGhtLfRVokgKdk8eQ14/2HxlQnZ6RBf3pJAvhwkow5HPUsDi4aSH2tdd1AZOupdBNDWiY633u5K0uHmmaCz/agj603dYzlDSwFqf98FyHDCDVkbaYCS3rUBU6FhsiJ0JxRFtA3b3UT/JTx9jk2XdcwMJY39rHDKxGz8rKQtgH1eYnqQBRb+IP7SNxhf150Gj8VNcm/s8qsPf3LBUNrk2hYLuJ/vhJonDZec+29zlV/A2Dq9DzsmPqn7QyhFuSHQidP9nHs1EaptTz1MtijSxCSX8LKd5vNBiG2DbEB+9lsQo9MGsUfI6OwmK/JMpre+grA2RDsSDxnuzbONv4qS/FyrNsTFiedSsLH/crogJ7yioUL6NdUy/yVOHZLu8593n0h4YLBbYvHSlZeXYQXVDE1LN3Mw3s9YkhrOecOGaFTQVMBUwFTAVMBUwFTAVMBUwFTAVMBUwFTAVMBQxS4D+2SObZKf937QAAAABJRU5ErkJggg==;shadow=1;" vertex="1" parent="1">
          <mxGeometry x="782.0042438616074" y="211.99572474888396" width="100" height="100" as="geometry" />
        </mxCell>
        <mxCell id="cc7wnKE9ARNa7VLksslT-7" value="" style="shape=image;verticalLabelPosition=bottom;labelBackgroundColor=default;verticalAlign=top;aspect=fixed;imageAspect=0;image=data:image/png,iVBORw0KGgoAAAANSUhEUgAAAGQAAABkCAYAAABw4pVUAAAAAXNSR0IArs4c6QAADmBJREFUeAHtnGlQlVl6x6fS053pmakklQ9T+TCTyVLVFTNJpTKpVGa+TU11TZIPM3Ixmkl60q2IoAIisiiKehfZ90UUUEQWFxShVVyx3ReUdu12ade44A640Mhynl/qwNwOXrn34r0XvBdfqp56F95z3vv+f+95z3mes3zrW8afoYChgKGAoYChgKGAoYChgKGAoYChgKGAoYChgKGARwqYzbyXm864zFRMqcmEpdqYm2xRVutilW1dqLLNScq6aD5zF84jLDGBoMRY/kan8ehmRqJXFSgp4K+LcgnNz1M1+Tnqq9xM1ZudIWSlCRkpQtoSIdUmJFsE22LBulAwJwmL5gtJ84T5CcK8WNU7N0Z9FR+tauKimRoTw1+9eifjjFMFVpXw96XFKrOkWN1YViQUFwhFeUJBrpCfLeRmCq8LJTFOmDtHiI8RYqOFmAh1PSZCZcyazt85/SFv8z9KSvju6nIiy1dwqrwMVpQIpcuEkmJhxKBECbMjhFkz1MmIMCJiYnj/bWbQ/+y1tXy/poro6tW0VlXA6nJYtRJGH4oQMV09mBmmzLMn8ydvHZjaWt7ZuJ5Z69fStq4G1lRBdSW8aSiR4UJEmHo8fSqREyfyzlsBpr6ef6qro7muFjash/Vrwd+gzJwmhE9Vp8JD+PmYhVJby3tbN5OzuR7VsAk2bQR/hzJ9qlLhU1RmWBjvjikwuzfz59u2caRxC2z5FDbXQ6BAmREqhE/pOxESMkaay007+LedO2jfsQ22N0KgQgkLUW1hn/CrgC4pe5v4aPcuenbvhF07INChhIeo7tAp/FdAQtm3j6h9e1CfNUHTbhhDUGTaFOICAop5It8vCePdg/uJOLAP9u+FvXtg7EERwqYQ43dQrCZ+bjWpTFuQOmcJVs+tJsE6Qb1YnaLk4H4Yk1DChP6KPkRJ6Cd87BdQzMH81GqSpn4AGsIQVpMNBw+MUSjTvoHSPS2ED98oFFsw4ZYg1TMUhMHnskOFwwc9h7KmDLLDBduEoYEPvpc/71tMSixB6rRlAv/qc3BWE4uG+/BZIcKRw3gEZdM6SP5tYINw1Kn/JZ7AP/oMijWISZq2442cHVdnCMeO4BGUVRkM+Rl0dq9AOW8JUgU+AWKeyJ9aTKptOA9uCxbKzcKxw9B8DI+glKeOTSA2kyr3CRDdknIFoyRO2FYF+7fD8UPweQu0HIfjzZ5Bqa8h4OuOofSymBjvNRDtVzgvHUptr4EvzsG5s3D2NJw+Bac+9x5KVR4kTxwb9Uh//RGsbF7D0BnYgvlwKNr63KalfH3hPJz/wj2U7euhNFFYFifUFsOBYfgpjQ2wvgzWLIc1xVBdDFVFUFkIFQWwKg/Kc2FlDpRlQ1kmlGTA8nRYlgZLU4SiZKFwiVBgE/ItQp5ZyFksZC8UspKEjAVCxnwhbZ6QOldISRCS4wVbrGCdI1hihMXRwqJZQlKUkBQhzJ8pJM4Q5oYLCWFCfKgQN1WYEyLETFZPLJP4tdZN25JgfmY28QOfwOgHYmLBUECSJ6nOi1/CpQvgDsqW1aDrlsH5lFtlzPopEaHE+wyAY0aW8aposJD2/fIF6sXlr+CrS+6h5IS+DEPnoQF9tt1zP8Wf+1MiwtW9Eeujt41X1XYIg7dr0oSrV8AdFF2fOJYOez7bN3jmpwRGfwozHV9unxxbTCrHLuDgbdk84dpV3EI5ssd5E1aXEE+dR/+Holp8AsAxE6uJOYNB2Pd1C+jCGdxC2VDoBEiwcPSQZ35KwHRyjcS4L6uJf7BDcNxWWoXrV51DOb4fUpyEQIpmiVs/pb4SKjNgtbZ0qEiDVakDVp4MK5bAChuU2aDUCiUWWG6GZYth2SIoXghFSVC0AArnQ8F8yE+EvHlC7lwhN0HIiRey44SsWCFzjpARI6TPFtK0RQupUUJKpJAcKSyJEKza5r46QvKVwXj9475UiuML7pNja5C66gjDfrwmVbh84VUoR3ZB1uRXK3N7ug1LXTuPZUnO09rzeGNb3WKMdg9ldqS64hMAjpnoCK+rh8/4H2FtmtBYDg3FQmm8YHVo5g5On/aRcOKIc+dx6xonn7khwvyD8x3Vfe20DjGW2LGkzJ7NXzjq6fWx+Rd822JS5331wPUlrj36tbkBAEQ33RPdQ4mbxRSvAQyVgc3EuORJ7vtB3EFbkSicPeM6zNJQHgBAJgjJi5yPureXlLgYVTmUnj45d2wHd5xV0u5A6P8vnS2c/dx9mOXoYcib4cd1iElInqncToXohxKrLvpEfMdMgPce3Kf3fAvkTH19saqThQvn3IdZ7FHiw/uhJlMoihGKooVCbbOEAm1RA5YfJeRHDlhepJAXIeRqmynkaJshZGubPmBZ04WscCEzbMAywoSMaUK6ttABS5sqaEsNGbCUKYLdkicLKVOF9Pjhz09JjFM9IzLy8dEjxj16BA8fQOst2FEBaf/tHkzxbEG3uNx59L6KEvvlYLw5fOD4gnt93N5O0OPHYIfy4D603oYTTVCXJ1QsFLT4pXFClU1oXAlnmuH6tVebxMMJSNpLiqedXP7kPCYm8BuvAThm0NbGjLY2cIRy/x7cuwt3W6H1Dty5Dbdvwa2bcPN/4cYNA4qe8+iop9fHHR0ktLeDAcWT6XXEeg3AMYMnT7B2dIABxZM5j8rsqKfXx0+fkvPkCRhQPJmIqrK9BuCYgQby9CkYUF5/IqqeR++op9fHz55hffYMDCiezA4egU/W8+ckPH8OBhRPpmyPQKXe2cmMzk4woLz+PHq9DIjXnyjHDDo7Cfr6axgMpe0xnN4PDUVC5WJheYxQliCsTRF2roaLp8HwU4T0lBFwDLu7GdfVBRpK+2Noqh5e6ERDOnXg7XYes1NGIHSig4tdXfTeuAB5QwzrcRftXZ8h/TGw4Xr058/CpiKhNEFYHvd7ixWWaZsjFNstRlhqt9lCkd38JCC55JM+sQarQnMwP3T86nh9fGY/d1Kd9JG7A6L/XxIr3LruPsxy5RIURbkPXA7nnv5yjSVItZon8mdeQ7BnYJ3AT3zRQVWRJNy94xrK3k0B0EHlQXeyJUhZ7Xp6tdUDrq3j1QVfvW1NNa7rlK0rxyYQW5CPeg+tQUS6gpH5sdBQKBzYOFDZ61LgapBD+u+Em9ecQzneNEaBBBPlVcmwJ3Y1DKg+X3jSPtD6Gtwkvnwacl1U/rtrXDeJ16WPrTrEapK9Bf/OH9o19Xj7+xm3L41ct5eWjVnCiy548QLsTeLBUG5dgfSPhhZW+yu6k8uVn9K8BzaXQl2hUFcgbCwQNuQLG/KE2lxhvbYcYV22sFZblrBGW6ZQkyFUpwtV2tKEylRhtbYUoUJbsrBqiVBuG7CVVmGFZcDKzELpYqFE2yJh+UJhWZJQvEAoni8snS8UJQqF84SCuQOWnyDkxQu5cUJurJAzR0gP7ztiCVZmSzCmWl8t92QzEWMHMHibMknoeATd3QNAnEHR9cXgdPZ9Pbv23h3cQgnkTq7SUn7icUlwltAapHLtIg7eVpuFnh76zRWUm5eHBqLzunZxoI/eXUkJRCgVKznhTFOvzptNqmowCPt+Y4nQ2zsARINxBkXXL/Y0jtsvj7/cR+/q8xVoUCrKmeGV8M4S20zEOwqpj4/voL2vD7dQ7t92DuTKF2Ozj76qgnu1tSO0qGbmr/ieJUiddICyt7uLBRqIOyjN250D0XXIWOyjX1s1wqsF5UzkfWsQYRaTSrOa+Fg7isAf9fXx2BWUpx1Q6GQE4tJIcdsdrMMsOjDZ8hmc2APaP2nWthuO7oKjO+HIDji8HQ5tg4ONcGAr7N8C+z6Fz7Q1wJ56aNoEuzfCTm21oCehbtO2FvTg7i01sLkaPq2CTyuhfjVsqoC6VbCxHDashA0roK4aGje7XBnvoV5t1dkXZ0TPA1FKDZQSx5LytB0qFw3d5NWlbdsKcdkdfLABvImbOZRop/WYJ9dlTpZ+MEMtV7hxPdNHVHRXmQN/0NdHsx3Ks3a4fg72rYOcKc5hLPkP4fZV593Bl8+BvsYTsUYrTVaovLJcYV0dLXoJXFeajfj/gH/u6kTVvoZnvblYXPY87lnrvN4ZLcGHc5+G2pfWkFQNDfzLiAs+nBtUmdWZ4TyAvqa/7nj8cs+j48CJA4EQ7Q0Wtm76/4U9NzeQNhytRuUaS5DqGA6QrE+E1mtDh1kGQ2m9CXpW1nDyfFPXLI2Vbxb23NHIsZYWP1rb12pSD90JUxwlPLjtOswyGMrls7BynvhdXZL8n0JpkrBr2zcLe7Y1NvLjUXnzh3sTq0llOwOiW0q6kv/6ufswSwAOMXqxcye/HK5Oo3adDitbg9RS63jVpcHkhAg61nViOzxtc+88Oo5mGVxS/HUscf8SuLuZNGoie3Ij80TeM/+a7wIzRUCbvUns6Kc4i30F0LivaE80emNpgEilUGMNyqED6CVwfT+9YDRIAcFK0TVWoBw9TPfhw/x2NLQbsXsAHyrF40CH0nyMh83NfliBe0IO+FFfH4cCFcrJFpqbm/lLT57db9MA7ypFhq5XAqWiP3MKdfokaXv38m2/FdbbHwb8tK+PY/4O5exZTp45w8+8fd6ASA+8o5vGfX08ctWf4mzgxIj6Ked5ePFLputIdkCI6csfCXxPKaJ7e7nzxv2Uy9y/fAnz1av8sS+fMSDzAt5XiplK0TKcgRM+dh5PXL/KjOvX+U5AijfSPxr4295eUnt6uOJqNIuXUC7fvknKjRuMG+nnGVP5d3Xx454epnR3U9XVxaWuLnqGGiHpqk55cJ+e+/e5ePculXfvMrm11c8is4FMTDedX7zgg+5uxnd2Evb8OfHPnmF5+pRsbU+eYOnoIL6jg7D2dn7z8CEf6DSB/MzGbzcUMBQwFDAUMBQwFDAUMBQwFDAUMBQwFDAUMBR4kwr8H3AgYgyHUvOUAAAAAElFTkSuQmCC;shadow=1;" vertex="1" parent="1">
          <mxGeometry x="1084" y="123" width="79" height="79" as="geometry" />
        </mxCell>
        <mxCell id="cc7wnKE9ARNa7VLksslT-8" value="" style="shape=image;verticalLabelPosition=bottom;labelBackgroundColor=default;verticalAlign=top;aspect=fixed;imageAspect=0;image=data:image/png,iVBORw0KGgoAAAANSUhEUgAAAGQAAABkCAYAAABw4pVUAAAAAXNSR0IArs4c6QAADVdJREFUeAHtnQl0FEUax8Pz2l013cMhnuvBPtd98va5Pl3ZddXVt+t97KJZVvFA0VGmqxEQQRQREDzWA4IaDSBHBBXMgkBgQSDIIZcogiA3IV09kyEZOwcMuSb931c96TAk08ckk5Cj8l69nnRXV1f9f13VXVVffZ2Swv+4AlwBrgBXgCvAFeAKcAW4AlwBrgBXgCvQogps8Z4mUrm3h8pvsCCoJO1COviXLZoHfrGoAiKVbxIV316REsQGQZHyRUW6kevUUgogpZNHlUaIConEgoj9LSjSUVH1XdVSWeqw10mlgzuLlOTEim/9W17RYYVqiYKnUvmPAiWHrAGc2HSxeAxgS+Stw11DpEQWqVSZCAwDiOK7tsOJ1ZwF7lo07GyPIs9JFIQZ36PINzRn/jpU2h464PeiQvaY4lptL1CHnPCWFRuPA0nSLSOq8qPGm1K9V9pYsdnvqwvGYk3VXg4kSbo3SIZ16kSVTKsvfLz/n9RmgOoaAiixBCKqZLDgl//WYkEh17BmtkHBXOzwHPAKrG9ll1dRHXjzmQef7e4iuaZHOVuVLhcUeVs88WP3dVcHI/PoavyMMEI4igKUWgNxqGGx6Sbrt5AvlYmq9Egiigiq/LSgkLDrPKhSHhuVSOQaCcVliQtUKnXK0NUFY7Cx6gCKcQwawgaUwyhrVUBqy1DFbjA3Ioh++Q+iItU4lT3ecUEl49xcw32cnaNPF6mUHu9i9fc9HJqCQE0JSlGOEhyrg1KII60RCG4qenPODGz0TsNG7xSs92ZirTcDa73pWO2dgFzv28j1vo4V3qsPv7qgflld/6+QiMdPrncvuE1MT2Dgrz0K2eh08XPUZ/HekZU4ikocQQXKUNEASg//8FYHxXfkU2TpmzFD34SP9Q2Yoq/HR/o6fKCvxSR9NSboq/C2vhK9Sz9qUt5TFTLDRmZ3hzxUulNUSMgJRs/AKKyv3I9jqEIYlZZQXiqd16RCOeUj0eMX+YdiamQ9ZutbHKGMrl6M7v7Bjc5/KiU73KkeLxbSThEUabyoEN2pkGlFGSioKUUFqlGOKlso7OH+cul89PC/0OiCOeXHzfEuVEavwteQXpWLudiKz/XvXEEZUpGNKw+PQmcqJ55/hYTiSe2476wCuZuokq+cCtaFDsT40hxUIoIqRIytGyixD3oGiD1b2AM/iDIEUAo/SkBRDAUa8qEhDz/jIELYjyLsQxH2oBC7EMROFOBHBLANfmyFiu+g4FvkYxMOYQPy8A0OYi32YzX2YRX2YiX24CvswlL8hMXYiYX4EV9iO/6LHxKCwpqvN/QVGK9/hbH6UryiL8FIPQcj9IUYpi9A73BmfFiNAXK2KnURKTngBOPywItYXbEb1aipCxxKFEpaeHKSgGD0qSKVVjrBuKswHYFICSLQEYkBwuBwKDnoE56SHCAiJX+1g+GhMsaULDRErzFgMCAcSv3m68Hw1OQA8ajyi1ZALvMPx7LyH6FDB4NhhigQDiUWSt/wtOQAERV5ghWQvqHJCOuVBhAOJX4/xYTySHh6coAICuljBYTt/1NwPPZUBzkUm84jg/JYeEZygLDRSYGSEjsoF6rPITu8hUOxgfJ4OCs5QFgHRVDkW+2sRExYT/+chWO1TZj5POEP+ugwS/9kAjGgUNJfpFKFKb7V9pbDb+FQdYg/6OuNfT0VnpW8GmJ24wWFXCOqUp4VDHP/Jf5hWFK+PSEoe6uDRg9f1maDxARJmwUWfEb4BD7tEwyoDc9on+AZLQtP1wavNhMsPKXNBJsAY6G/EabjCS0aHtemo582DY9pH+PR2vCINhUPa1PQV5uCh4wwGQ9qk/FvLRN9tEz8S/vICA9oH4KF3loG/ql9gH9oH+A+7X3cq72Pe7T3cLf2Hu7SJuFOLR13aOm4XZuI27QJuFWbgGuKXk0+EKOm5A/wpCrSQlN8qy3rn4wuWVDXPzGbsHivxGsr9uJ8m7l1q2u0h/0CJap5wzd+i5ROAiXDREWqdhLlzsKJCESK6/oo8Z4pNwbfjH/3nIQZQ6fyNMPxnMaDqHcms8FNpcTvlMnLAyPwdcXuuFDYsAobkHRKo90eV8ngerI27V82CuyhZJmTYGYTxsa2YpsvNirsdG57PS4o0g8pO0ef3jQC8c5G2imiSsa6mVu+vygDhTVldVA6LBDFt7yz33dRPDmTtq8z9d0uKnKR0x19ZeBlbKw8YEBhTZZl/Hwp10PJ3HYTVN/nIpXHeCi5IwUpnZImvF1CnVX5QpFK31iKXPug7koH4t2yZcYEllVcbrlop3Qix9jKKDYo6WKqt2/IYp6AEnAgiYjuIi5bruY0DmZVO9h+DsSFyIlGSaW+34j5ZKud8FbHPPm+vyR6PR7fjQJ5/X7h1qAuFo5wiFzqJnkep5EKRK3iXdvABlKQdkojL8VPc6uARxnYU6DSrtiaEO+3RyE+t2nyeE1UgJn8Cyr5LB6I2s6l3MRLNOl0QZUfYCaeUWt+qVik8grWx2pSom3hZNZBYsZ3tZbzGjM3YmaqJy3vSOkkqtL0uDcKJRAomd2t0HfWSctfR7uwqEqDrGCY+1lz2zlfurKjadPy5WV2y5QUmMLbbaOODRJb1NPyBWrjVxTyB1xmByH+MTnr/ID3V2286K0z+2zhTHzRGzo0ODGe73vW+W2dpWrDuWKjAicK7QTi+PHo8JDcuw0Xv/Vl3Q7IVaGx1lME5jQzG0hVyLspW7yntb7StcEc2QEZoS/CvUcy0EV1syBH3izmDbqkxSRIVXzXGgYOVJrVbiaOKJkr5ku5Vk0WW3jzkp6DxyuycEFgqIvaIhelKuS2ZoXC3iYEhXzoZo7DqmBtdT9bDTVKX2xAGRTJRs+iV1xAkWrYtHazjcd5KMlsq4I2Nd9sidoY/X91UF7QF+DvpRPBDDcc01bIqm55vnOTWltSqXRdR6wZTGy2kPM1fTnG6cvqQVmIh8qn4Ty/tfMcExYzlUrqZJvhks98m+hg2yuCI/EffSVet4Diq56D3xaOdFFTpGqBys8nxbjBcmS2ncPppg7CkPJsvKPn2kIZos/HDSVvQXTRhKWqZIGQP8DTpCZMpGSeWf1it72C4zBQ+xTMQNrKSDqeobS9kXSsoXRDI+lYQ+mokXSsofRxI+lYQ+m0WiPp+7WMOIbSUSPpuw0j6aih9F3Fk9CnZDLGVy3F+/oaTNS/doQyVP8S94cn4xz/IOfaQqWDzHC90VCsgAwr/qLeCtvquA4CylAe404jbDieYWvRi4y16EeMtejMKxBbi64aa9GLjbXoh2rXoh9AyFiLvheF2I3D+AlB7EAA2+HHD1DxPSi2QMFm5GMj8rAeB7EOB7AG+/E19iEXe7Acu7EMu7AEO5GDHViA7ZiHbcjGVszRv8en+neYpX+LmfpmTNc3Yqq+AZn6N/hQX5cQlCerZqPH4RFuoFSIivxEo6DYAWm47JlDGViTjV7FrztDUaQajyrdnTAUKyDDi7+wcBDAoQzW5+Heoxnoqj5rC4aNgyXs1MwOSKyTgBMdBHAoDEq/qixcHLT3dsQW1iZUS6yBZBteGziU+P0U9qBnUHw1c9EzNNq6pijyhCQCiToI4FCsoaQdm2Lrwon185IMhEOJ13l8UV+Em0vece6fJPrxAbsmq/4SNV5TojVlePWX6Fk4yrqZMjvVim95CkafmrQaErsaynQ609GhDCj/DOcHnnOGQaX9jfJvb1VDXijOrlsJxWvKGsMPY5+yyeiiOq+ZFChZ3fXQoPMSqhlmZCsgscMo5u/fBUYivWwFqhE5wW9WvFfivEgID4Yyca7aeJ+F5nWTvb3Y/zz6lU7DfGxz1aN/J7IS1xWNd64VCtGZm8QmzZMYE1Nmm+dym3Fkle0rcRhV+HPwNecCuLxesoGY6T1a8rHjMMuoihxcGrDvaxjpKSSUFMtMwXCrcdzKwsys3fa64Pg6R2bxninrKve1ehisfBf5n7cd++pfloWuLpoo5lKXudY1W50mbQ2fi6oUtANQ/9gF6pDCCJAWDZG0CI6HSkTSXime/2r9c1rr/4uwowGUmZFNuCX0tsubSkpP+vJnj1++R6Skyr1oUrrdXdA9OPRMNyt23V8vsRqcSLpL8NMJo8STqnJxRcFLjjCYEXmz+nhnH+oSFLLBxXr0RW6+MsA8QYiUBBIR52TEXYpddUP3w45mo5vDgCHLI1vK4NZ/vN2N6+qY8eUcP7m+/qcZmG2ToMg9XCViRtonn9FZlXvVT6ul/7ezfGdzKYv1HYb3H1c3hEqm8e8xmoAbubUzlJtVtQlXBW0GB2vfBAVKygUqeRuZBX5arAJ2QM5z009SyB72mafYNPnvJihgB8SpmWIfPnPzzGxC9jreqcxE1kn4hseNTwGe1PWQ7ZZUrX97x1dZEwr7SCb7WGa7FaQ1FMzN1x9qgeQ0apS2NRSyLeWBLea09ZDHPlHEZvdayrVSWxKvufLKxpvYV2/MpsncevKl3eyzeM11XZ6unQL75DOMdTDsc3gqGScq0n18ZZSdYPwYV4ArwBXgCnAFuAJcAa4AV4ArwBXgCjSLAv8HPW5dYrqhFoAAAAAASUVORK5CYII=;shadow=1;" vertex="1" parent="1">
          <mxGeometry x="1089" y="301" width="79" height="79" as="geometry" />
        </mxCell>
        <mxCell id="cc7wnKE9ARNa7VLksslT-9" value="" style="shape=image;verticalLabelPosition=bottom;labelBackgroundColor=default;verticalAlign=top;aspect=fixed;imageAspect=0;image=data:image/png,iVBORw0KGgoAAAANSUhEUgAAAGQAAABkCAYAAABw4pVUAAAAAXNSR0IArs4c6QAADzpJREFUeAHtnVlwHNUVhkmoylIJpJJKKklBXpIiD3lJJTzkJSskJISAutuIAGaxsbHxih1k413TPbKkkbzIwrIk76uQbXnBdozxKm/CqywvwpK84hXwvm+650/OSI1Go74z08uMRmZUpeqZnpm+9/5f3+3cc08/8EDqL6VASoGUAikFUgqkFEgpkFIgpUBKgZQCKQUsFViQjgd9Kn6pa3jGUNBDV4Sha2KSoYlSnyrm+xQxj18bmggYKkYZGnr7Nfw1Kw0/s7xg6qQ9BXxP42FdRZquiEJDa9xmqOKGoRKc/OuauK6rjdsZll/FP/Kfwnfs5eYr+u3sdPzIUPGWodIGQxX3nIgfy290RdzlNHQF3XLT8b2vqNzyYvsV/NlQaVE8IchA6Yq46UsT73Me5Dn8CnyCB/A1XUEnXRE1MrESfV7XGrdyH8V5+wogaCmi3gl/1xVRnWjBY02P86Zr+EtLju/TVz4NjxoqLYxVGKvv+TXC6JcJuV0JeW8RAr0IeX0Iub0JOT0Io7sSsl4j+P/tbABgpqmrgnjkNlrDT+9LHDwE1VVx1SxwrMfszoSCgYQSP2HaBMLsaYSZ0wjTpxCmlhImFxOKJxKKCgmF4wkFYwnj8gj5uYSAQcgeSvD3JxhdCHq6fUi6Ii7zMPu+glL4NL6pq+KzWCEEuhBKMwllU4GK+YQF7xPK5xHK5hDmziLMnmEDymhCtp+Q5SMYowiZGYTM7vbhcMcfeA4P3RdgjE74TSww3htImD8ZWLEMWLYUWLoYWFwRByjDCSOHEEb0JWR2Jugxzm90RTQYKn7d4aFw38FtsiUUjTApg7BsPrB6FbBqJbByReKgDBtMGNaPMOqVGMEo4pqu4m8dGsqWLXioaIA4Hg5kfE/Cf8uByvXA+rXA2tXtB2XIO4ShvQi+F2LoZxRxR1fwUoeEsmcPHqvehUM7twFlYwjjexAKehMWTgK2bgI2bwQ2VSYPlMEDCMO6xgRF+BX06lBQ9u3D43v34POaaqB6N7B7J7BzO7BjG7CtCqjaCmzdnIRQBhIG9SJkRhmVcTOsq3i9Q0CprcUT+/fh6v59wN4aoBWUHR0DSkZfwsiXo9QWRdzxK3gqqaE0NOB3dZ/g+ie1wIH9QIeG0p8w/NWoUK4l7ejr0CH86lADLtTXAXWfAB0SylACj764ox88kPBOf8LQ16ONwkR90s1TTtbjkSOHcfLwIeBQAxATlA7Sp5hQwkeKoe95oSxpmi4AXz92DOuOHgGOHAbuVyhRmy8N3ZMCyonjyDp+DDh2FLADZcMKoDiDMN1HWFwKbFqTuNFXAdu8BjcZJbO6EHKHh5lZmmf0oc1XRv/IHT3bvnzp+Em7Qjl1Ck+c+BTixKeAXSglGa07zKznCdNGEipXx29IXFxAyOtNYMtxaJPDUALhti+GEtanZPQj+CIMif2KmN0uQLgTq63FN06fRN2pk8DJE4AdKDu2AkaYKKZAOS8Slpd5D2VSDsEvE1Mj5PklUIa07ugH9yLokrxzGRK6nmJo6G6kibOc8Jgu4mzNFuD0KcAulJVz0OoONWGYR3+n5hm9R5PHosy2tcJMyzzmvdtsureqKWFQIs3o/YrYnZCVRz0Nz5qZN4+5LxMOH7QPZWFh6ybDvF6ro0ZYMr25plQCHy0FFpYAM3MIJUMJ7/2HUNCXUNCHMGEAoWhQk+l+xligbGqL6X5yDklrY2h6gQEh6ynRoAwgZEawffk74Z9xb7oMtbEqtADm63XlwJnT9qDMy40BiErISidMGU4IRJugWZjRc15uAuV/Pra0Agw3dJErChQ2SMrM93pa48dxBWIoeNwEEH5cUwacPWMPSvmY2EQKTyue7/P6Waw8RoEyqrO8HHH1ZvGrYqalGBqhYR/w2Vl7UJZNjdyHWKZlUQu8/N7YDMlycAQoQ/vKa4lfFWVxqSVBJ7Y0ccuq8DNGEM59AXz+mT0om1cmH5AJoyKs0UeAkikxQrLfV1yc8Zo9Ci1HRbvXA+fPwTaU+k+AbJfeIVY3iJtzkwJRHCckUEb0kzdbhoo3PK8lhkrLrQo6vjvhwjngwnlnUOb4IxUksZ9xxz+9NAZvFgkUqVeLQus8BeLrgm/JnJ1XTSdcughcvOAMytoFydNs5fd04c0ynODrJrmBFHHHUwdvHk9b1Q4+V18NXL4ER1AO1QMFPSSFiHPnbVWenM6EWVNcQAkzA4Wmwd6antUSXRUFoRc3X495nYIwLl92BmVedvLAMMs0fqA7vy9DZpZRRY5nQAy1sdLMcOixYizh6hXgCgOxCeXATrQx7oVeuz1fTyt0AaWL5CbTGrd5BkRXxXkrgaqWAVevwhGU2bok4+3QVIWXbXx/5x6SftloSxHXPLFtZaXjkfAMm+8bqoFr1+xD+fQwwGZ28zrJdmSj5pxpDqEMkZeLtXRdS7gzshRMI1z8Arh+zT6UrcuTZ2RlWTaVMDXPoS+xIQfiV/GEayCyCSHPP27cAG5ctw+lYrw80zKBEn2+cJBzB29DagHGW14AGWIlxpRBhJsMxAGUWZnJD2RcnxbTvV2v+yyJVdqvYaRrILomsq2AzM4k3LoJR1BKBiY/kPzu5HgrRPYbkvJpIuAaiKGIIisgCwKEW7fgCErx25IMJ8EIyyxrfjdyvBWCd3KZ1wk98r5610B8qpgTelHz9QeFhNu34QjKjOHWGTavnQxHXoF0uj8lt5d1+VhL10D8aWKulUDLJhLu3IYjKB8UWWfYKp32OlcynBxvGuI9j1b59sQbRVdFidXFF+YT7tyBIyg7P0r+Ye+8ic43DQV6WgMxNPGe6xpiqCLfCkiZn3D3LhxB+eIsMFo6NJQUJoH9S9YLhJUfON/JFehuXQZdFVkeAMEoKyAzhhHu3YNjKBXjrDNtlVaiz5UOJ1fb63Ik9iy/ikHugWjobSXI+G5NQJxCOX0cyH4x+aCMTid8uNTd9jreR2+lmSfbq3l/ueXFVcL1KwjWEqdQPpolyXgCm6fwss3Jc7e9buZkuf8Xa+m6hnC8qfBMm+9PNbQAcQLl4nlgyuDkgTKhL2HTend7HqeOlZdn9HP4sWsgwSAxmrhuQgg97lwFNDa6g/L5KWCCbFSSwJqS34VQuca9L3GxdFlBnHMNw7xAMPiXhTiLxlIQiFsox+sANlaGwk7ka4axfqU3G1ELBkjK4aWjg66KPCuBxr1BaLzXVEvcQuGaMu1dSWEsbgar/Dg5V9iX8HGlR7uDywmjJQMVXRXjzBvc9ZHD4skKe/ZYCxC3ULhPWV5MCVm84kWosnxC9Q7vtmzPLZZPeFlD1yDMC/jS8d3msHhtmpV1c1qaLQbiFgqv0R85EN/OftJAwtZ13u8OLhlpXcM55iO7Upl6enJsioPYNsGCN9sC8QIKO0401AAL87ypMVwjpg4jbFoB1NVG2R3scCNq7mtt9WluWRZ7AiH0IhwwUtZsHakBhGjddHkFhb1ZTh8DNi8G5mUR8l6RFrpN7Q10JszMJKyaC+yvju9G1LIieXMVF1fSYNhWRdy0gjLPoCAQGZS7d4D9m4ETdc5sX6aLEXtHbiiPzUGCnShWTAGOHbG/EfXLMCA2Ik7wHMZKGyNN3PI9ix+G3tyevfYrotwyUZXAk0QGYgXl4uctTtVsAztz1L6VmA2SUx2MwkozCHUHXECJoflazu6wkv2GflVM9wxA+IV4I6MMCK8gmkCsoByvBdjTkX+f+xLh4PbYoVz4wl0nX9SPcLguflBmB+TNlU/Db8N19PS9kda4xRKKRji6t6WWyKCY/lhsfj9cExuUxQWS5sDG/ITdVu1u2Y41YM4s3r9okRcOO+up+FYX86v4l1XifK74/4Fa7t2NDGVZyGph/quEs8cjQ2nY453L6a4N9vfRxwJlZQXAo7hwXfwKFCsNPT3Hti2/KvaEJ26+r1raGkh4Tbl8HsgOWZx6rxfh3Gk5lHIPHbJnjiJb++gtoxhJ+pQFJTzYaN5hFtxphiGeCh/pYlka/iiLochinzkSGUpFfuu7aVxXwo4PETTnhzpOXLkI5LzU+rsmeCdHvouPNtgLbmADSsNcHx72afg5T6Qj6ReXz3gzo0yUib0Jt67LoTTsknSCGmFsV0Jhz6Z/XgSTpeH0/M719iNOxAKlahOejIvQsV6UIz4bqrgiE2bRGAI1D4PbjL7uAUWycbtF5yhLw8n5yiX2I05Ig7A1N18fV8G980Kswkf6Hi9JRhJl9QwCkXVN2b1GUkviDGRtub3gBlGDsG3H3qoqfDuSTgn9TOZIZ4LasghSKDx3Mb+XqOO69+0FN4gShO3yrl34RUIFj5YYRwRqivgsEVcjyKCwo90SD+YYdmCuL7cX3CBCZLy7Nbs93DcYTWg7n3MASEMR1yIJE2y+JH1Kw25g1ghvrLqR8sCfrZ9vL7iBVWS8/ftAB/biNTsaJfy7HH7bUMSdSIJwR3/7hnWfwtZhNkJevwxcu9T0v2Wx9/3MhgX2Ik7UbAOqqwDeMczN18Fa0MFa9E24wE4S5PDbhiJEJChFfaLPU0zT/fYV3gOpXBBbxIk9HwOTQtbHJ/Yl7NmGxvp6vOlEm3b7DYffjgaFJ49blyCqmSUeQDYujBxxgqPifTgDwZBQ4TdW4BVR327Cukm4uaZEbL64sCVvE47tb92Ece0w/+MCpEIecaJ6I8CW4XAQoe877BN3mvuUiB19sKAaYX4u4dShFjDxBLKpom0YkNqdwNwImzW/BKII4UvHD9zcrO362+DoSxX1XxYoyqSPVx55OTiuQBY1hQHhYDk1G4GZ7JggWVyyyPeidhXUi8R5nhLJ7mVRaBR0J6ydTVgbJUim1W+jnVs5BeCAOQ7sZIuTLpS4G0AcyTT4gK0otSSaoIn/XFwy1CSfczgFwxGf2dQiM90nXuzIHXjwoccaHnVa3g7zOw4MyXFtkw2AmZ9g3tLwhw4jqFcZzVLxe0OhdaYQ7X0MPuFTRbonQWK8Eqk9rhOsMaoo44CRCYfCflP8LHYVf2qPsid1muyMx15+wVoTxS7mBpyuituGQqsNDb1znsH3k1qUZMkcxygMPsRYFbnBB9xHsSZHBBR89mDjRkMVY9kTxNP4h8kiWHvkI/iASgVPNtnLMEIPwhKlHNyAH41qaKKU92HoijB4mM17+vyd8NiCdDzYHvlNpZlSIKVASoGUAikFUgqkFEgpkFIgpUBKgY6gwP8AtE+pCYWct+kAAAAASUVORK5CYII=;shadow=1;" vertex="1" parent="1">
          <mxGeometry x="951" y="218" width="85" height="85" as="geometry" />
        </mxCell>
        <mxCell id="cc7wnKE9ARNa7VLksslT-10" value="" style="endArrow=classic;html=1;rounded=0;shadow=1;flowAnimation=1;" edge="1" parent="1">
          <mxGeometry width="50" height="50" relative="1" as="geometry">
            <mxPoint x="201" y="182" as="sourcePoint" />
            <mxPoint x="306" y="234" as="targetPoint" />
          </mxGeometry>
        </mxCell>
        <mxCell id="cc7wnKE9ARNa7VLksslT-11" value="" style="endArrow=classic;html=1;rounded=0;entryX=0;entryY=1;entryDx=0;entryDy=0;shadow=1;flowAnimation=1;" edge="1" parent="1">
          <mxGeometry width="50" height="50" relative="1" as="geometry">
            <mxPoint x="200" y="355.29" as="sourcePoint" />
            <mxPoint x="306" y="308.00000000000006" as="targetPoint" />
          </mxGeometry>
        </mxCell>
        <mxCell id="cc7wnKE9ARNa7VLksslT-12" value="" style="endArrow=classic;html=1;rounded=0;entryX=0;entryY=1;entryDx=0;entryDy=0;exitX=1;exitY=0;exitDx=0;exitDy=0;shadow=1;flowAnimation=1;" edge="1" parent="1">
          <mxGeometry width="50" height="50" relative="1" as="geometry">
            <mxPoint x="199.99999999999986" y="270" as="sourcePoint" />
            <mxPoint x="301.6" y="267" as="targetPoint" />
          </mxGeometry>
        </mxCell>
        <mxCell id="cc7wnKE9ARNa7VLksslT-13" value="" style="endArrow=classic;html=1;rounded=0;exitX=1;exitY=0;exitDx=0;exitDy=0;shadow=1;flowAnimation=1;" edge="1" parent="1">
          <mxGeometry width="50" height="50" relative="1" as="geometry">
            <mxPoint x="398.9999999999999" y="269" as="sourcePoint" />
            <mxPoint x="468" y="269" as="targetPoint" />
          </mxGeometry>
        </mxCell>
        <mxCell id="cc7wnKE9ARNa7VLksslT-14" value="" style="shape=image;verticalLabelPosition=bottom;labelBackgroundColor=default;verticalAlign=top;aspect=fixed;imageAspect=0;image=data:image/png,iVBORw0KGgoAAAANSUhEUgAAAGQAAABkCAYAAABw4pVUAAAAAXNSR0IArs4c6QAADLhJREFUeAHtnXmQFcUdx1ejue/7Pq2Y4HbPUmsCicYyMYkp45FD1BxVOUxQvE08khgtTPwjURNFRfO6Z0E2IoIhaAhEMLKiKKASUKIgCoL3AQooIvp+/U395vmys2+7Z96bN/PeLDtUUTPb0+f3Mz19/bpfR0fxr1CgUKBQoFCgUKBQoFCgUKBQoFCgUKBQYKdQYMREvFn6OK3Tp2lS4yxxOd6xUxQscSGAXYRGt9T4jVD0l0AYheNGzMBrE8dZZ8Av/BlvkJqWS21Q/e8pemDYQhE+viUU3VsVI3wV2vyrYzx2rVPbRN48H8eE0+y/x1mJIhyqgbpL2F36pPoF6H9Dw25eD76eZRmFpkvC6fXf09VZppuvuIFdPG1m9BfeDoOfCx8nZJl56dNEWz6EpulZppuruLkBtYlgczvsapo2toTdsyrAsAfSXcK7habNNvFr3Q6dbnD6fIOjrzdzx/dhtyygDHsgUbWjq8fgqFkGx841OKfP4NKlBuctrED5+fX4dQEkAwWkLt9SWxP479FXGsxaDdz+MHDjWuDvq4ApKwwuq0KZR8+NyaAbXNQQRZtsQC5aCqzZCKx4wg7ltPkGh0zHSbIXb0rzPRnWQIKuriJjA3LTemDD5sFQpq0EDp4e7oXRRk/hwLSgDGsgLKLQ9KINyKz7gSdfGAzlmLlhGJV7oei5UVfhrWlAGfZAZIlW24AcOcvgqRcGQrluNcANvc2/9PGNAkgKCkhNE6wCawOG8o81wMINwIQ7gC9OccDQBl0+9kkhOx1FDSlhlAtIve6iRP9Ja45r2APht9pTZla94tv94Stp1A6OowDS0dExYjLeL0v0sF1s92eK/QtFPWnBKICElBQliMahkE7rU1XNSlFDqkq8WlPq+XwJRU97Cr/oAHYJBU/ldqcFMmYGXuMp7OUpHOH5OMdTONFTOFhMwifjlJMao1kYXqmTinZUPmX0kvDLS4SPM3iJNS6OpM93KiDcFggfY6SiXumYEgm++5rWeZpK7LdrMt4eJ96ePXhLnJ+0ng9pICN78EEWNRCXl10d0yBRjbVQVJaa7vJ8+oNXwr5ptwmNghoyQNjAIPiUaJzCq2dC0WNRQid9JjQ95Wm6ytP4YafG+xoVtFn/+QXCy6oKB0pNF3q6fJtUtD2pyInDKTI86GPrk+4S3tas2PWEzyWQSoPc7GAtevzQMCRFm7hB7y7hjfUIm9RPLoFIjVMaFixkx5Rl2MqnEuN46j6p6FHhcgeku4QPCEVbkooqNNlnY7XBuLkGZ9xoMGamwejJTdagEq3ldiZxJ2A8du1S+JxQOJM7JTyu4d5c7oCIEv21ERjcS6p852kCjzWEplds4ffpNehdYXDlCgO9zODyOyrr5D++3uBrU3m21r5QZYsr7CZKtFIqHBr11lefdU7CR6TG0dwpkZo2huPh+yAuh21YW8yAhI/9YruuirZKbf4tNP1OaBwUXhiS2lxbW8jq3+fcDFx7L3D1PQOhXLzY4PxFBuf2GYz9Jy/LGoyaTFQNV/+1vNjrwZer4vOVB5DBYDQwfqNVdcXllxfZ/LUcyP7jsZvUdI8tM+zmKbq0U0Nygx8udPU+sMV1jEMOmGow+37gulXRUNii5OwFBmfeaDCO4VwT1JyG4HjKzPc0zpa6fHP/KL/+z6PbjLXFhnJRDbnQ9N+4RrRTmxtcMC9aAsxfC8xZ0xiUU28wGDvbYL8p5SWupV5XmkndO/3yrbawLa0hkQ25ItOlsX+1JtiuPMK2FYLdDrrGYOF6oO+h5FCOm4NTvSvwIbaEF5pedqXVrDu3hdzA2+JpKZDohjzeyDj4PDi6vZOWA4sfAW7dkBDKfHr0lL7++a69fOwhNU2VOkk7M/jTxTVPKDOPOyQ8xml7Lyt4ux3ffqloK7+ZtlpRdevy8U3bG8Vuh880WP4EcOdjyaH8doG9BzVyEkYEBtquvDtekCCvQZe5MrlZO3HZViDckHuKVrgE9TR+WRXeeuWNNcHUxuA3j+OceR+w8kkkhnLBbdRrTTfkKEsYJbS5yVUGdg/WT7SZITTGSo0Ph4IPum0rkGYbcqlwlEuIn8w2geXhqqeTQZm4lJ655Ba8Z5BiDofKvFv5du62C0Uv8Gco2JamIRtZyGobEF6HcI7I62jIufsrtb1v72mDm9YBa5+tWB4mgaKW4QiH9pHObFrKNT/SU8TDtgHxFL7terulrqMh9/EzV/jj5xk8sgVY/1x9UKauBE6eZ3DsHIMLFwPT7jazIzTL9FHbgPAo2yqooq288BRV6o9PxutdBgkjewzuegJ4bCvqgtKzHOiusUbcbwrGR6Wf5bO2AQl2mypaPxgKToorsPBx6uBwlYb9V30Gz2yrmIDGQWGLxC/1WjoEirbXs7Qbl88kz9sGhDMre7Cn1OWFlT49beSZz7gGkLuJ3GuxAdl7ksH9m4Bnt6MuKCfOs8B4tbvKUzFJBG02TFuBJMk8W5DYYLDbeYsMtuwANr8UD+Xa+wBu/K1xKdrRrn3hQwrIZ6bgXa6eGe94enQL8PwOxEK59xkEU+5WGAxJ0QVJXpY0wgwpIFLT+S4RJ9xpsP0VYNvL8VDOvtlRMyqzyg9kvUwbBW7IAOku4VMVk53BYu7ba7DpRWBHGbFQFjwEdPmD4whA8zSIjwOiBMv62ZABUnv+R7imcGN+wg0GM1cj2GTjqimPbwUOmeGAwbVDUylrwePiHzJAXLUjDIbv+e3naZMp9wDrNg/8fP1piRuG1PRIq0x9oqAMCSCVtegoMe3PuBfFu6AuXwbMeXDwADAMk5dao4Rq1bMhAURqHB4WL/37+KmaAkhIAU/RH9OHUKlVPMgcOan+Wd1QtjK5HRo1RJkFNiBC0zabe2Nu+F4myiaMNP9AxmNX12BQ+jiZDbC5BnX6tKYxEFxDyPCiUULtMgmWeyCdGp91C43RYVV4M45UOFmq8qJY+67qtIkiE+yGCkfUxvvcA5E+fmQDwtYfPGPs0k5qfKIyK8yHy9RjlUhtm3IPlyH3QDxNl9mASE3LwgWJuud9HlKb2fZ4+rvMnFbcbHNUOmk8yz2QTlVeaheSrmhUAJ7et8fVD4XPXUxsQN1ohiz+cw2ksmuKXrKJ6Pn4qaU8sU5SY1ycTRUfCxtnKRmbUEIPuQbS2YO9bTDYjfeVJyxzh1D4gctKPpTe7Kg2KmnaceFyDUQqHBcS6P+LSTz+aMayg0URGodJba991TSFMn21hmxxgjb7PNdAPJ8mV8UZeC3f0mzBX4VyUJwRNVuzt7JNyTUQtnofCKLa+NKFaQDhONiQm01W7elU0qvd95FW2rZ4cguEN7u4ptw9jSNthUnq5vn4fPRBAzg+adyNhsstkODNrY6ma671HI/RqBC8Gci2zaxSc1p37npugUiN062fEUWbshq8Bfa4NfA5D3zKQ6OAk/rPLRDXWezBLxQkLW1MuE7f/M36Evg0MSZoao9zC0RoWmcThzd7plb6moicvToVvy2hJqrEf+YSSHCYmOXTEQDycUji0sYEjDgQ87qYoKk9zh0QT+HTQtPjttrBbnwEU2qlr4lIajrPli5vyKnxmtmfuQLC+/eEpkdtolTcaENmSvDo3Tn5WL4zy3TDcecGCK9fSE0b3DCC3s7vw5lP+74y8VgdfIauJVqddlqu+HIBZEQJHxU+PRQJQ5n5e1yC17kKkoY7n11iywN/QtOIv5442g6Ed9lKTQ/ahKi6BZvpU/4VAps4fGZJNc2BV3re5j8Lt7YCkVfgvVLRfQMLH/pUBOad5duyPHQyLCrPWVnzosi4jvQIh0/jvm1A2BbKPXlYhVK+vZXT35XfLqymPfDaKjPTtgDh332KOmiG31Lef97qTTPc5bbWkGBMFL2/PI3awXG0HAjv3eNTQN0F5zeTlu/l451pFbLeeIIjxx0DUj65od54mvHXUiBc7YUu3xEJQ9HdvFOqmUIlDct7zJ15K2FU0ngbCdcyIMF5WGzA5ngD2Z1PVGurnS0f1RGc4zuw/QjypvDVRoRN6rdlQISP70fB4FMZ2nFObq1w/PNFtnx6Gt+p9ZvF3y0D4pon4sKzXS6fmZVFARuN0zVA5Req0biS+G8ZEHcN4UFha3ow9Qjk+nWEZsyO6km36qdlQII2hM8hDLUh/OsDI318rJqZPFz5FxWkpmfD+ZS6cSvJpGVpGRDOIM9Fsfk/H5XHRxe1arDVqDi8hU4oOjcQR+G7WS0Z2/LFh30OfBkqHQy2prT5L9wyVoCP+rMB4Rck46SL6G0K8DnEwQ/JhD7tPNuchx6oLb/Dwo3HYrwrjK0mpU8Xx507OSxEKQpZKFAoUChQKFAoUChQKNA2Bf4H1R3sj7tZpskAAAAASUVORK5CYII=;shadow=1;" vertex="1" parent="1">
          <mxGeometry x="314" y="226" width="80" height="80" as="geometry" />
        </mxCell>
        <mxCell id="cc7wnKE9ARNa7VLksslT-15" value="" style="shape=image;verticalLabelPosition=bottom;labelBackgroundColor=default;verticalAlign=top;aspect=fixed;imageAspect=0;image=data:image/png,iVBORw0KGgoAAAANSUhEUgAAAGQAAABkCAYAAABw4pVUAAAAAXNSR0IArs4c6QAACmpJREFUeAHtnXtwFdUdx50+pq/p3+1frdN2ph2b3Ysig9iHVkHeUq0REEEeImARQdEybadlaMe2WKWtWubu7k0CjXmRkJDkhkd4GwyC11Dej4RHeAsEeSUEcn7f+iN35XLZPRsy3mV3u5n5zdk9e+/uOd/PPbtnf+d3Tu64I/wLFQgVCBUIFQgVCBUIFQgVCBUIFQgVCBUIFQgVCBUIFQgV+D9S4McxRFQdY1QdrygafuNHUzU8r2gY2DOKr/sSXc8ovqwYmKoY4oCqE4Jiii5as3SxoMd83OkbMHcb+G5EE1uCAsG6HuJyxMB4z0NRcvA9VRMnrCsRnJbyWf0MzPQslDtz8VVFF9s/K2yAblX2dRIioqG/J6EoBl61L3gAW0fyB6foYg8/Mz0FJbsEX1R0cdIWiCba7omJj/rkdWy+P08k7KxPnkhYWe88kbjBckWid4r1yhWJW7KYSPRK2r0xkbCynjGRuGaGaIgY8ttwRMdwTwFRDPzcDsYDC8WOqt1oXLMfWLUfWNkErGgElu0Dlu4F4nuBqj3Akt1A+S6gbCdQugMo2Q4UbQMKtgL5/wUWbgHyGoCcjwAjAWgfEqIfEuZvJryzifDWB4R/biTMqye88T7h9Q2Ev9UR/vIe4bX1hD+vI8xZS5i9hvCH1YTfryL8diVhVi3h1RWEmcsJLy0jTF9KmFZDmBonTKkmTKoiTKwkDClEu6oLsqpnliEKvQZkhlVBe8ZEe20TsP4gsPYA4HcoD//H+tabZYi9ngKiauJ1KyCjKggbmoG6Q8GAkr3IGoiii0ueAhLRxdtWQMZXEeqbERgoI8usgXDdfQNk42EEBsqoxT4HMqGKsOkIEBQoo8v9DqSasPkoAgNl/BI7IKLFF7esZ6sJiWMIFJT7826GEtHEW74B0nAMgYIyuYrwswWdUBRNdKi6yOvzJr7mCyATqwlbjgNBg8Ivj5MqRfMPY/imp0CYhbHr9k6ME7aeQDCh1IgDZv09l9oBeS5O2HYSAYXiQyCT4oQdH+OWoaxuArQEMH0FYXQl4Ykywq9KO+3xUgIbdxhyGrrm+5pXDzxdQRhcRBiUtIFFhIGFhAFJ619I6F9AeCRp/d4lsPVN2sP5BLaH8gm/yCc8sFC0qjrVSs2gmoghclUd01wdZbRrIQxk18e4JShvbgQezL+5J2PlCeid6wzl7Q+A+yx6Rlbny2ieJiiiU0lWFN/P+C3ODsjkGsLuU+gSFPZ3PVfdNRCpwvF3ZF5ibkmpn7/d24omzvUwMDijUGRA9p6GI5RNR4FxVd0TLnsxSV33wyXujtsFR9HF1Swd/TIGxQ7IlBrCvjOAE5TX6tDtX/HLtfLxlBnLu3/uzAITLVk6vpURKDIgTS2QQqlrBu7L7V7r4Id0xS75IBcPbvGDPLPidvP8hnjHVSDPLyXsbwFkUP5eb/8LvidGeDZOmLmy016uJbxU27nN31u6r2sjjzzq+Me1wOQ4gV9W+bnCjk8eHhhXSRhbSXiGbQlhzBLC6Aq61isbVU54qpwwcjFhRNKGlxGeLCNklxKe4J7fIsLjiwiPlRB+WUIYVkx4tJgwtKizV2flajF/HBznpS7ENz53KHYthIEcPAspFB7EMguYmnKrWbQzGK77QQXWdbxWXw2Pugrk0FlIoXCfPhWEuT17XXC8xC/ECb1yrOvJ0TquAfn1UkLzJ4AMyt0x64Iu3BosL/FDNuPxqi7muQrk8DlIoZgtIj0t3BYsL3FfmzsB3+5dAzJ1GeHoOUAGJR2EuV+0PVhe4n5eAXLsPKRQTADpafGOYHmJH3nX+tbsegs5fh6QQUkHYe6X7AyWl9gTQF5YRjhxAZBBMQGkp6U7b91L7OVgvP5eaCEM5ORFSKGkgzD3OaS0O657r0IZYPMu4uota9pywqmLkEIxAaSni3d1zUvslxAjzwA5fQlSKOkgzP3y3c5eYj+FGA30Sgs5cwmQQTEBpKcVe5y9xH4KMRpU6IFe1ovLCS2tgAxKOghzv3KP3Evst2gWzwA52wYpFBNAespAZF5iv0WzDPZCC+EghXNtgAxKOghzv3qv3Evst2iWITZjMq72shjI+cuQQjEBpKc8s8rJde8nKJ4BcqEdUijpIMz9+D65l/hWo1lu96QhHrAy65aautpCZnw6d+9iOyCDklq41O2aRrmXuKvRLF55Txla7BEgl65ACiUVQur2ska5l9gpcMJrXWIe1k2tn7ntbgv5dIZr6xVABsUsWHrKQJxc936CwmPt6XXkfVeBcEBC21VIoVgVkvOWN8q9xH7rEg8rcRGIaoh/WAnLvqzLVyGFYvU9zlvRJPcSO0WzeO09hSNSrOqaoRaCWVYX61dAaG2HFIrV9zivdr/cS+y3LjGHCVnVNSNAFB3DrC7GeXPrO1uJXUux+97K/XIvsSxwwotd4tE28xMzEnXCwV7Xgr5sVgB6cjHhjY0EHgU83XrjM8UOyKoDci+xUzSL16DMrSP0TIuwydLFqbty8e3PPciBT6jqYr6duKn5fQsIjWevQ0k9lrq9+oDcSywLnPBq7+tP6wlDign3xsQZNUplShQ/yggMPimTVnXRkiqq3faLK673vuw+w0BkXmI/d4n/vRmvZAxE6ok5xJ5D7e1ENvN/ukBcuNyBaFsHomZeerrmoNxLLAuc8HyXOOESEIbDk1EUXXySLvCN+x3rTZA35l/viaw7KPcSywInvN4l1t0EwkLz2ouKLopV7eb1pRRdXFE09HUEckjuJXaKZvEylJjbQEyxeYXSa8vFRkWOyhMgdZGvRtHbPM6pXQtZ3yz3EjtFs3j5PSXW4OItK1XsrmzbAXmvWe4ldopm8eJ7Cq+K97vVQHYZ4ipPQ5iNL3RFI1c/YweEZ1Y5ue79BMVqJldWlCo9B0UGROYl9luXeGat3UwxjHS1BThdzA7IhsPXXx6D0FJ4epx1XTMwP8RJdNlx60IS3j8s9xLLAie82CXmeYpWdc2Ic1EmuNMxq0JyXv1huZfYKZrFa1BG2rQQ/wA5ArRfDQ4Uns1r9ePzF5CO4ECxe4b4BsjGI8AVBhIQKHbTvz0HhBchtmrKaw8BV0VwoGTbrvkr5jo9Z109ruqi0QrInDpChwgGFJ5aYTdPXdUx3VXBnS6mRkWRFZAeBqFge2cL8XNLqdgNPGazRDnXu4eBnzhp5OpxVcMIKyBmHo8w8tJNvH4jG699km4T4oQJvH5J0sZXE9jGsfF6JkkbW0Uw7Zmq5PomlYQxKcZj32xPpxjf/9meStrICgJ3Y9lGJG14OYGXgmLjIWu2oSUEXq/FrMtNqSZO8L/6cFVwp4s9OBtfUnWx66bC2ozPB+lzioEZTvrcluOqgQGqLkSQxHaqC//jtB/8C1+5LYJ35aKqgZlOlQjOcXHc1UUxuwLA6jOKhrGqJtqCI7zV80Mk7oriO1b192QejzLyP2+0ez/xLayoaIpomMzPTE8K71Qo/jennc8WTFF0MSdiiL/6znTMihgYnaVDdapveDxUIFQgVCBUIFQgVCBUIFQgVCBUIFQgVCBUIFQgVCBUIFQgSAr8DxwsGxvjPSlvAAAAAElFTkSuQmCC;shadow=1;" vertex="1" parent="1">
          <mxGeometry x="482" y="231" width="78" height="78" as="geometry" />
        </mxCell>
        <mxCell id="cc7wnKE9ARNa7VLksslT-16" value="" style="endArrow=classic;html=1;rounded=0;exitX=1;exitY=0;exitDx=0;exitDy=0;shadow=1;flowAnimation=1;" edge="1" parent="1">
          <mxGeometry width="50" height="50" relative="1" as="geometry">
            <mxPoint x="563.9999999999999" y="271" as="sourcePoint" />
            <mxPoint x="633" y="271" as="targetPoint" />
          </mxGeometry>
        </mxCell>
        <mxCell id="cc7wnKE9ARNa7VLksslT-17" value="" style="endArrow=classic;html=1;rounded=0;exitX=1;exitY=0;exitDx=0;exitDy=0;shadow=1;flowAnimation=1;" edge="1" parent="1">
          <mxGeometry width="50" height="50" relative="1" as="geometry">
            <mxPoint x="718.9999999999999" y="269" as="sourcePoint" />
            <mxPoint x="788" y="269" as="targetPoint" />
          </mxGeometry>
        </mxCell>
        <mxCell id="cc7wnKE9ARNa7VLksslT-18" value="" style="endArrow=classic;html=1;rounded=0;exitX=1;exitY=0;exitDx=0;exitDy=0;shadow=1;flowAnimation=1;" edge="1" parent="1">
          <mxGeometry width="50" height="50" relative="1" as="geometry">
            <mxPoint x="874.9999999999999" y="268" as="sourcePoint" />
            <mxPoint x="944" y="268" as="targetPoint" />
          </mxGeometry>
        </mxCell>
        <mxCell id="cc7wnKE9ARNa7VLksslT-19" value="" style="endArrow=classic;html=1;rounded=0;exitX=1;exitY=0;exitDx=0;exitDy=0;shadow=1;flowAnimation=1;" edge="1" parent="1">
          <mxGeometry width="50" height="50" relative="1" as="geometry">
            <mxPoint x="1029" y="233" as="sourcePoint" />
            <mxPoint x="1077" y="180" as="targetPoint" />
          </mxGeometry>
        </mxCell>
        <mxCell id="cc7wnKE9ARNa7VLksslT-20" value="" style="endArrow=classic;html=1;rounded=0;exitX=1;exitY=0;exitDx=0;exitDy=0;shadow=1;flowAnimation=1;" edge="1" parent="1">
          <mxGeometry width="50" height="50" relative="1" as="geometry">
            <mxPoint x="1029" y="287" as="sourcePoint" />
            <mxPoint x="1082" y="330" as="targetPoint" />
          </mxGeometry>
        </mxCell>
        <mxCell id="cc7wnKE9ARNa7VLksslT-21" value="&lt;font face=&quot;Times New Roman&quot;&gt;&lt;b&gt;LOCAL DIRECTORY&lt;/b&gt;&lt;/font&gt;" style="text;html=1;align=center;verticalAlign=middle;whiteSpace=wrap;rounded=1;strokeColor=default;glass=1;shadow=1;" vertex="1" parent="1">
          <mxGeometry x="117" y="441" width="88" height="46" as="geometry" />
        </mxCell>
        <mxCell id="cc7wnKE9ARNa7VLksslT-22" value="&lt;font face=&quot;Times New Roman&quot;&gt;&lt;b&gt;GIT PUSH&lt;/b&gt;&lt;/font&gt;&lt;div&gt;&lt;font face=&quot;Times New Roman&quot;&gt;&lt;b&gt;(REMOTE DIRECTORY)&lt;/b&gt;&lt;/font&gt;&lt;/div&gt;" style="text;html=1;align=center;verticalAlign=middle;whiteSpace=wrap;rounded=1;strokeColor=default;glass=1;shadow=1;" vertex="1" parent="1">
          <mxGeometry x="301" y="341" width="111" height="55" as="geometry" />
        </mxCell>
        <mxCell id="cc7wnKE9ARNa7VLksslT-23" value="&lt;font face=&quot;Times New Roman&quot;&gt;&lt;b&gt;VIRTIUAL&lt;/b&gt;&lt;/font&gt;&lt;div&gt;&lt;font face=&quot;Times New Roman&quot;&gt;&lt;b&gt;MACHINE&lt;/b&gt;&lt;/font&gt;&lt;/div&gt;" style="text;html=1;align=center;verticalAlign=middle;whiteSpace=wrap;rounded=1;strokeColor=default;glass=1;shadow=1;" vertex="1" parent="1">
          <mxGeometry x="466" y="339" width="100" height="51" as="geometry" />
        </mxCell>
        <mxCell id="cc7wnKE9ARNa7VLksslT-24" value="&lt;font face=&quot;Times New Roman&quot;&gt;&lt;b&gt;PYSPARK&lt;/b&gt;&lt;/font&gt;&lt;div&gt;&lt;font face=&quot;Times New Roman&quot;&gt;&lt;b&gt;SCRIPT&lt;/b&gt;&lt;/font&gt;&lt;/div&gt;" style="text;html=1;align=center;verticalAlign=middle;whiteSpace=wrap;rounded=1;strokeColor=default;glass=1;shadow=1;" vertex="1" parent="1">
          <mxGeometry x="631" y="339" width="100" height="51" as="geometry" />
        </mxCell>
        <mxCell id="cc7wnKE9ARNa7VLksslT-25" value="&lt;font face=&quot;Times New Roman&quot;&gt;&lt;b&gt;DATA VALDATION&lt;/b&gt;&lt;/font&gt;" style="text;html=1;align=center;verticalAlign=middle;whiteSpace=wrap;rounded=1;strokeColor=default;glass=1;shadow=1;" vertex="1" parent="1">
          <mxGeometry x="787" y="340" width="100" height="53" as="geometry" />
        </mxCell>
        <mxCell id="cc7wnKE9ARNa7VLksslT-27" value="&lt;font face=&quot;Times New Roman&quot;&gt;&lt;b&gt;GIT COMMIT&lt;/b&gt;&lt;/font&gt;" style="text;html=1;align=center;verticalAlign=middle;whiteSpace=wrap;rounded=1;strokeColor=default;glass=1;shadow=1;" vertex="1" parent="1">
          <mxGeometry x="935" y="341" width="101" height="47" as="geometry" />
        </mxCell>
        <mxCell id="cc7wnKE9ARNa7VLksslT-28" value="&lt;font face=&quot;Times New Roman&quot;&gt;&lt;b&gt;DATA LOGS&lt;/b&gt;&lt;/font&gt;" style="text;html=1;align=center;verticalAlign=middle;whiteSpace=wrap;rounded=1;strokeColor=default;glass=1;shadow=1;" vertex="1" parent="1">
          <mxGeometry x="1078" y="221" width="101" height="48" as="geometry" />
        </mxCell>
        <mxCell id="cc7wnKE9ARNa7VLksslT-29" value="&lt;font face=&quot;Times New Roman&quot;&gt;&lt;b&gt;CLEAN DATA&lt;/b&gt;&lt;/font&gt;" style="text;html=1;align=center;verticalAlign=middle;whiteSpace=wrap;rounded=1;strokeColor=default;glass=1;shadow=1;" vertex="1" parent="1">
          <mxGeometry x="1079" y="407" width="101" height="41" as="geometry" />
        </mxCell>
        <mxCell id="cc7wnKE9ARNa7VLksslT-31" value="&lt;font style=&quot;font-size: 18px;&quot; face=&quot;Times New Roman&quot;&gt;&lt;b style=&quot;&quot;&gt;AUTOMATED DATA CLEANING AND VALIDATION PIPELINE&lt;/b&gt;&lt;/font&gt;" style="text;html=1;align=center;verticalAlign=middle;whiteSpace=wrap;rounded=1;strokeColor=default;glass=1;shadow=1;fillColor=default;gradientColor=none;gradientDirection=radial;" vertex="1" parent="1">
          <mxGeometry x="436" y="-12" width="446" height="71" as="geometry" />
        </mxCell>
      </root>
    </mxGraphModel>
  </diagram>
</mxfile>
